/* XPM */
static const char *clear_clipboard_16x16_xpm[] = {
"16 16 6 1",
" 	c None",
".	c #000000",
"+	c #FFFFFF",
"@	c #C3C3C3",
"#	c #FF0000",
"$	c #808080",
"       ..       ",
"  .....++.....  ",
"  .++.@@@@.++.  ",
"  .++......##.  ",
"  .+##++++##..  ",
"  .++#.++##.+.  ",
"  .++##+##.++.  ",
"  .+++###.+++.  ",
"  .+++###++++.  ",
"  .++####.+++.  ",
"  .+######.++.  ",
"  .+##.+###.+.  ",
"  .##.+++#.++.  ",
"  .#.++++.+++.  ",
"  .$$$$$$$$$$.  ",
"  ............  "};
