/* XPM */
static const char * configure_16x16_xpm[] = {
"18 18 89 1",
" 	c None",
".	c #49494B",
"+	c #424244",
"@	c #000000",
"#	c #414143",
"$	c #EEEEEE",
"%	c #E3E3E4",
"&	c #C9C9CB",
"*	c #BCBCBE",
"=	c #2A6A68",
"-	c #173A38",
";	c #4D4D4F",
">	c #99999A",
",	c #B1B1B2",
"'	c #5B5B5D",
")	c #010101",
"!	c #357270",
"~	c #ACDBDC",
"{	c #296967",
"]	c #565657",
"^	c #F4F4F4",
"/	c #B4B4B6",
"(	c #AAAAAA",
"_	c #58585A",
":	c #3C3C3E",
"<	c #C9E7E8",
"[	c #4D908E",
"}	c #143433",
"|	c #2C5A58",
"1	c #636365",
"2	c #C0C0C1",
"3	c #625821",
"4	c #559B99",
"5	c #AADBDD",
"6	c #69696A",
"7	c #B7B7B8",
"8	c #DEDEDF",
"9	c #F0E4BB",
"0	c #CFB262",
"a	c #215250",
"b	c #97D4D2",
"c	c #65ACAA",
"d	c #2F5D5B",
"e	c #C5E6E6",
"f	c #72BAB8",
"g	c #EBEBEC",
"h	c #A0A0A1",
"i	c #828283",
"j	c #50491D",
"k	c #978530",
"l	c #FDF5DC",
"m	c #C7AB56",
"n	c #6F4E1D",
"o	c #BEE1E0",
"p	c #73BAB8",
"q	c #39393B",
"r	c #ACACAD",
"s	c #2B2B2C",
"t	c #CEAC7F",
"u	c #9C7741",
"v	c #6F4D1C",
"w	c #235351",
"x	c #050504",
"y	c #949495",
"z	c #4B320E",
"A	c #84612B",
"B	c #DEBD96",
"C	c #B48D5B",
"D	c #6B4815",
"E	c #3B7674",
"F	c #3A260A",
"G	c #906C33",
"H	c #E7CEAB",
"I	c #BE9A6D",
"J	c #3C7675",
"K	c #BDE5E3",
"L	c #7CC2C0",
"M	c #38250A",
"N	c #A48350",
"O	c #EBD4B3",
"P	c #397573",
"Q	c #C4E7E5",
"R	c #99743A",
"S	c #E5C49D",
"T	c #B38A56",
"U	c #C1E5E5",
"V	c #D3B186",
"W	c #987339",
"X	c #604012",
"       .++@       ",
"      #$%&*@=-    ",
"    ;@>,')@!~{    ",
"   ]^/(_: !<[}|-  ",
"   12^33 =~4}|5@  ",
" :6783903abcdef=  ",
":ghi'jklmnobfp=-  ",
"qrg_s jktuv==w-   ",
" xy@@  zABCD@     ",
"  @+  E[FGHID     ",
"     JKLaMNOID    ",
"    PQL=@ MRSTD   ",
"   |UL=@   MRVWD  ",
"   -L=@     MWXM  ",
"    -@       MM   ",
"                  ",
"                  ",
"                  "};
