/* XPM */
static const char * configure_22x22_xpm[] = {
"22 22 154 2",
"  	c None",
". 	c #414142",
"+ 	c #606060",
"@ 	c #7D7D7D",
"# 	c #A6A6A6",
"$ 	c #BABABA",
"% 	c #9C9C9C",
"& 	c #6A6A6A",
"* 	c #090808",
"= 	c #FBFBFB",
"- 	c #C6C6C6",
"; 	c #828282",
"> 	c #4D4D4D",
", 	c #3E3C3E",
"' 	c #676464",
") 	c #717171",
"! 	c #636362",
"~ 	c #333336",
"{ 	c #A2A2A2",
"] 	c #C0C0C0",
"^ 	c #464647",
"/ 	c #163C3D",
"( 	c #5B8587",
"_ 	c #295151",
": 	c #797979",
"< 	c #AEAEAE",
"[ 	c #C9C9C9",
"} 	c #878786",
"| 	c #525252",
"1 	c #323235",
"2 	c #464648",
"3 	c #E8F2F2",
"4 	c #5DADAC",
"5 	c #939393",
"6 	c #CFCFCF",
"7 	c #FFFFFF",
"8 	c #F6F6F6",
"9 	c #A6A7AA",
"0 	c #494B52",
"a 	c #4B4D53",
"b 	c #56A09E",
"c 	c #10393A",
"d 	c #1A3A38",
"e 	c #F1F1F2",
"f 	c #9C9DA0",
"g 	c #3F3F40",
"h 	c #8C7A2C",
"i 	c #655E33",
"j 	c #A9E7E4",
"k 	c #174545",
"l 	c #ADF4F3",
"m 	c #21403F",
"n 	c #808080",
"o 	c #A0A0A0",
"p 	c #A5A6AA",
"q 	c #AC993F",
"r 	c #635920",
"s 	c #54380F",
"t 	c #AAE7E7",
"u 	c #85CAC9",
"v 	c #2D5252",
"w 	c #4FA2A2",
"x 	c #122C2C",
"y 	c #666666",
"z 	c #626262",
"A 	c #535354",
"B 	c #C3AA4D",
"C 	c #D3BF7A",
"D 	c #153B3C",
"E 	c #86D1D0",
"F 	c #6FBCB9",
"G 	c #90DDDA",
"H 	c #9EE5E5",
"I 	c #61ACAD",
"J 	c #194F4F",
"K 	c #757575",
"L 	c #E1E1E1",
"M 	c #CCCCCC",
"N 	c #A7A7A6",
"O 	c #545456",
"P 	c #42434C",
"Q 	c #815B20",
"R 	c #CBAC7A",
"S 	c #886F2D",
"T 	c #81D1D8",
"U 	c #40908F",
"V 	c #225D5D",
"W 	c #1C4C4C",
"X 	c #1F5251",
"Y 	c #041C1D",
"Z 	c #868686",
"` 	c #F7F7F7",
" .	c #959595",
"..	c #4C4C4D",
"+.	c #B48D59",
"@.	c #F0E0C8",
"#.	c #C2A36C",
"$.	c #53380F",
"%.	c #20676B",
"&.	c #050E10",
"*.	c #838383",
"=.	c #CACACA",
"-.	c #646465",
";.	c #474749",
">.	c #322109",
",.	c #B48D5B",
"'.	c #CCA475",
").	c #866E2C",
"!.	c #656565",
"~.	c #545455",
"{.	c #CDAB7F",
"].	c #856C2C",
"^.	c #553910",
"/.	c #8CDDE2",
"(.	c #3A6F6E",
"_.	c #BFA075",
":.	c #8DD7DA",
"<.	c #53A4A7",
"[.	c #174F51",
"}.	c #020000",
"|.	c #BB9F6A",
"1.	c #7CC5C4",
"2.	c #459596",
"3.	c #286A6A",
"4.	c #010406",
"5.	c #312008",
"6.	c #E9CDA8",
"7.	c #C19F70",
"8.	c #85D0D0",
"9.	c #469595",
"0.	c #225D5E",
"a.	c #081314",
"b.	c #EACDA6",
"c.	c #C7A972",
"d.	c #2C2F32",
"e.	c #90D9DC",
"f.	c #479697",
"g.	c #286969",
"h.	c #050E11",
"i.	c #EDD0AB",
"j.	c #BA985D",
"k.	c #243034",
"l.	c #B6FFFF",
"m.	c #4D9F9F",
"n.	c #225F5E",
"o.	c #061315",
"p.	c #BF9A60",
"q.	c #573E16",
"r.	c #22353A",
"s.	c #102C2C",
"t.	c #081619",
"u.	c #916B34",
"v.	c #53360B",
"w.	c #332007",
"                      . . + .               ",
"                  . @ # $ % & *             ",
"                  . = - ; > , '             ",
"            ) ! ~ { ] ^ .       / ( _       ",
"          : < [ } | 1 2       / 3 4 /       ",
"        5 6 7 8 9 0 a       / 3 b c     / d ",
"        + [ e f g h i       / j k     / l m ",
"        n o p g 7 q r s     / t u v / 3 w x ",
"  + + y ~ z A r B 7 C r s D 3 E F G H I J   ",
"K L M N O ~ P   r C Q R S s T U V W X Y     ",
"+ Z `  ...~       r +.@.#.S $.%.&.          ",
"  + *.=.-.;.        >.,.@.'.).$.            ",
"    !.~ ~.        / 3 >.,.@.{.].^.          ",
"                / 3 /.(.>.,.@._.S ^.        ",
"              / 3 :.<.[.}.>.,.@.|.S ^.      ",
"            / 3 1.2.3.4.    5.,.6.7.S ^.    ",
"          / 3 8.9.0.a.        5.,.b.c.S ^.  ",
"        d.3 e.f.g.h.            5.,.i.j.S ^.",
"        k.l.m.n.o.                >.,.p.q.>.",
"          r.s.t.                    >.u.v.>.",
"                                      w.>.  ",
"                                            "};
