/* XPM */
static const char *copy_16x16_xpm[]={
"16 16 62 1",
"# c None",
"a c None",
"l c #000000",
"S c #303030",
"d c #424242",
". c #585858",
"c c #6d6d6d",
"f c #707070",
"7 c #979797",
"0 c #9a9a9a",
"6 c #9c9c9c",
"Y c #9d9d9d",
"V c #a0a0a0",
"5 c #a2a2a2",
"R c #a3a3a3",
"4 c #a7a7a7",
"G c #a9a9a9",
"p c #aaaaaa",
"3 c #adadad",
"W c #b1b1b1",
"2 c #b2b2b2",
"T c #b5b5b5",
"A c #b6b6b6",
"1 c #b8b8b8",
"P c #bababa",
"o c #bbac94",
"r c #bca687",
"k c #bcb4ad",
"x c #bda07a",
"v c #bda280",
"O c #be9b6d",
"D c #bebebe",
"C c #bf9f73",
"N c #bf9f76",
"M c #bfa682",
"L c #c1aa8a",
"K c #c1ae96",
"J c #c2b59f",
"I c #c3b9aa",
"s c #c3c3c3",
"H c #c5beb4",
"Z c #d0d0d0",
"X c #d6d6d6",
"U c #dcdcdc",
"b c #dedede",
"j c #e0dedd",
"z c #e0e0e0",
"Q c #e1e1e1",
"B c #e6c9a3",
"F c #e7e7e7",
"w c #e9d0ac",
"u c #ecd6b9",
"E c #ededed",
"q c #efdcc2",
"n c #f1e3ce",
"y c #f3f3f3",
"m c #f4e9db",
"i c #f8f0e5",
"h c #f9f6f2",
"t c #f9f9f9",
"g c #faf7f5",
"e c #ffffff",
".......###aaaaaa",
".bbbbbcd##aaaaaa",
".beeeefgd#aaaaaa",
".beeeeffddaaaaaa",
".beeehijkl...aaa",
".beehimnolpbcdaa",
".behimnqrlseftda",
".bhimnquvlseffdd",
".bimnquwxlstyzAl",
".bmnquwBClDyEFGl",
".HIJKLMNOlPEFQRl",
".llllllllSTFQUVl",
"aaaaaa.pPTWQUXYl",
"aaaaaa.bEFQUXZ0l",
"aaaaaa.D1234567l",
"aaaaaa.llllllllS"};
