/* XPM */
static const char *down_22x22_xpm[] = {
/* columns rows colors chars-per-pixel */
"22 22 54 1",
"  c #010001",
". c #0d3652",
"X c #0d3d5c",
"o c #1c425c",
"O c #254a63",
"+ c #30536b",
"@ c #11658a",
"# c #116c92",
"$ c #137194",
"% c #1f779c",
"& c #337f9e",
"* c #0e87a9",
"= c #0e8bae",
"- c #0e8fb6",
"; c #0e92b6",
": c #0e95bc",
"> c #0e9ec3",
", c #0eadcb",
"< c #0eb0cd",
"1 c #1ca2c3",
"2 c #17abd0",
"3 c #24a9cb",
"4 c #3db9d3",
"5 c #15c1da",
"6 c #23c2d5",
"7 c #6bbed8",
"8 c #7fbdd5",
"9 c #44c0d7",
"0 c #40d1db",
"q c #5fc0d6",
"w c #59c3da",
"e c #46dbe6",
"r c #48dfe9",
"t c #7bc6de",
"y c #7cc9de",
"u c #80b6d0",
"i c #8fcada",
"p c #95c2d6",
"a c #98c7d9",
"s c #8fcce2",
"d c #a9cdde",
"f c #a7d7e7",
"g c #b5deec",
"h c #bcdeeb",
"j c #bce2ec",
"k c #c0dfee",
"l c #cde1ec",
"z c #cee9f2",
"x c #d3e5f0",
"c c #dcecf4",
"v c #deeff8",
"b c #e1ebf2",
"n c #fdfbfd",
"m c None",
/* pixels */
"mmmmmmmmmmmmmmmmmmmmmm",
"mmmmmmmmmmmmmmmmmmmmmm",
"mmmmmmmmmmmmmmmmmmmmmm",
"mmmmmmm..O+o...mmmmmmm",
"mmmmmmm.plccx% mmmmmmm",
"mmmmmmm.ci8ys@ mmmmmmm",
"mmmmmmm.nj4;6# mmmmmmm",
"mmmmmmm.nz7*0@ mmmmmmm",
"mmmmmmm.ng9-e# mmmmmmm",
"mmmmmmmOnt,-6$ mmmmmmm",
"mm.XXXXXh73>5;XXXXXomm",
"mmm &uudf,--5:<1&@ mmm",
"mmmm &bdw>-:25r1@ mmmm",
"mmmmm *ncw1:5r1@ mmmmm",
"mmmmmm &ncwwr1@ mmmmmm",
"mmmmmmm *nhr1@ mmmmmmm",
"mmmmmmmm &b3@ mmmmmmmm",
"mmmmmmmmm *@ mmmmmmmmm",
"mmmmmmmmmm  mmmmmmmmmm",
"mmmmmmmmmmmmmmmmmmmmmm",
"mmmmmmmmmmmmmmmmmmmmmm",
"mmmmmmmmmmmmmmmmmmmmmm"
};
