/* XPM */
static const char * edit_remove_16x16_xpm[] = {
"16 16 60 1",
" 	c None",
".	c #5A0909",
"+	c #4A0606",
"@	c #490808",
"#	c #480808",
"$	c #4F0909",
"%	c #540808",
"&	c #F91616",
"*	c #D30202",
"=	c #D30505",
"-	c #D40505",
";	c #D20505",
">	c #D10505",
",	c #CF0505",
"'	c #CC0505",
")	c #C70505",
"!	c #C40505",
"~	c #BF0505",
"{	c #BD0505",
"]	c #C10505",
"^	c #B00606",
"/	c #DA1313",
"(	c #B40000",
"_	c #B50000",
":	c #B20000",
"<	c #AF0000",
"[	c #A90000",
"}	c #A50000",
"|	c #9F0000",
"1	c #990000",
"2	c #9D0000",
"3	c #8A0101",
"4	c #D51313",
"5	c #AC0000",
"6	c #AE0000",
"7	c #B00000",
"8	c #AB0000",
"9	c #A70000",
"0	c #A10000",
"a	c #9C0000",
"b	c #970000",
"c	c #9A0000",
"d	c #880000",
"e	c #D71313",
"f	c #AD0000",
"g	c #A40000",
"h	c #A00000",
"i	c #980000",
"j	c #9E0000",
"k	c #8B0000",
"l	c #C61313",
"m	c #9D0202",
"n	c #9C0202",
"o	c #9A0101",
"p	c #950000",
"q	c #920000",
"r	c #8F0000",
"s	c #8C0000",
"t	c #890000",
"u	c #8E0000",
"                ",
"                ",
"                ",
"                ",
"                ",
" .+@###@##@@@$% ",
" &*=-;>,')!~{]^ ",
" /(((_(:<[}|123 ",
" 456<7<6890abcd ",
" e[5f6f5[ghaijk ",
" lcmmnobpqrstud ",
"                ",
"                ",
"                ",
"                ",
"                "};
