/* XPM */
static const char * edit_add_22x22_xpm[] = {
"22 22 131 2",
"  	c None",
". 	c #F14343",
"+ 	c #CF0808",
"@ 	c #C80C0C",
"# 	c #C70D0D",
"$ 	c #CA0D0D",
"% 	c #D21212",
"& 	c #690707",
"* 	c #E94949",
"= 	c #BC0000",
"- 	c #B20000",
"; 	c #B00000",
"> 	c #AF0000",
", 	c #B20606",
"' 	c #5B0707",
") 	c #E44747",
"! 	c #B80000",
"~ 	c #AD0000",
"{ 	c #AB0000",
"] 	c #AA0000",
"^ 	c #AF0808",
"/ 	c #B90000",
"( 	c #AE0000",
"_ 	c #AC0000",
": 	c #B20808",
"< 	c #5A0808",
"[ 	c #E24545",
"} 	c #B10808",
"| 	c #570808",
"1 	c #E04E4E",
"2 	c #B70000",
"3 	c #AD0808",
"4 	c #510808",
"5 	c #D21919",
"6 	c #BF0D0D",
"7 	c #BC1010",
"8 	c #B50C0C",
"9 	c #BE2323",
"0 	c #E35F5F",
"a 	c #B30000",
"b 	c #A10303",
"c 	c #9D0C0C",
"d 	c #AD1212",
"e 	c #B51010",
"f 	c #C31212",
"g 	c #9B0909",
"h 	c #E82B2B",
"i 	c #C10000",
"j 	c #BF0101",
"k 	c #C00202",
"l 	c #B60202",
"m 	c #B10000",
"n 	c #A90000",
"o 	c #A60000",
"p 	c #AD0101",
"q 	c #B00707",
"r 	c #AC0505",
"s 	c #A90505",
"t 	c #A60505",
"u 	c #750303",
"v 	c #DC2929",
"w 	c #A20000",
"x 	c #9E0000",
"y 	c #990000",
"z 	c #950000",
"A 	c #940000",
"B 	c #8E0000",
"C 	c #6C0000",
"D 	c #DA2929",
"E 	c #A80000",
"F 	c #A40000",
"G 	c #A10000",
"H 	c #9D0000",
"I 	c #980000",
"J 	c #8F0000",
"K 	c #6E0000",
"L 	c #D92929",
"M 	c #A30000",
"N 	c #A00000",
"O 	c #9C0000",
"P 	c #6D0000",
"Q 	c #A70000",
"R 	c #9A0000",
"S 	c #970000",
"T 	c #910000",
"U 	c #E32B2B",
"V 	c #B40404",
"W 	c #B50404",
"X 	c #AE0202",
"Y 	c #A50000",
"Z 	c #9B0606",
"` 	c #9B0707",
" .	c #960000",
"..	c #790000",
"+.	c #810C0C",
"@.	c #6F0101",
"#.	c #6E0404",
"$.	c #6A0303",
"%.	c #6B0404",
"&.	c #B91B1B",
"*.	c #961010",
"=.	c #631010",
"-.	c #420000",
";.	c #450000",
">.	c #430000",
",.	c #400000",
"'.	c #470000",
").	c #DE4F4F",
"!.	c #AC0202",
"~.	c #980404",
"{.	c #280000",
"].	c #E14A4A",
"^.	c #A70101",
"/.	c #960303",
"(.	c #2E0202",
"_.	c #DF4A4A",
":.	c #910202",
"<.	c #2D0101",
"[.	c #A20101",
"}.	c #930000",
"|.	c #8D0101",
"1.	c #2D0000",
"2.	c #EC4F4F",
"3.	c #920000",
"4.	c #2F0000",
"5.	c #B42C2C",
"6.	c #720000",
"7.	c #710000",
"8.	c #700000",
"9.	c #7D0000",
"0.	c #300000",
"                                            ",
"              . + @ # # $ % &               ",
"              * = - ; > > , '               ",
"              ) ! ~ { ] { ^ '               ",
"              ) / ( ( { _ : <               ",
"              [ ! > ( _ _ } |               ",
"              1 2 > > _ ~ 3 4               ",
"  5 6 7 7 8 9 0 a > > ~ ~ b c d e e e f g   ",
"  h i j k j = l m ; > ~ n o p q r s s t u   ",
"  v m > ; ; m > > ; ( _ n o w x y z A B C   ",
"  D > ~ > > > > > ( ~ { E F G H I A z J K   ",
"  L ~ _ ~ ~ ~ ~ ~ _ { n o M N O I A z B P   ",
"  L ( _ ( _ ~ _ ] ] E Q F w N H R S S T P   ",
"  U a V W V X Y Q o Y M w Z ` x R S A  ...  ",
"  +.@.#.#.$.%.&.] G w N G *.=.-.;.>.,.'.-.  ",
"              ).!.O x O N ~.{.              ",
"              ].^.I R I O /.(.              ",
"              _.F z z  .y :.<.              ",
"              _.[.}.z  .I |.1.              ",
"              2.G 3.A }. .A 4.              ",
"              5.6.6.7.8.7.9.0.              ",
"                                            "};
