/* XPM */
static const char *edit_add_22x22_xpm[]={
"22 22 83 2",
"Qt c None",
".h c #000000",
".8 c #004500",
".7 c #005100",
".5 c #006500",
".6 c #007d00",
".N c #008900",
".U c #00a000",
".4 c #00a900",
".G c #00bd00",
".3 c #00c000",
".X c #00ce00",
".2 c #00d400",
".g c #0a0a0a",
".f c #121212",
".z c #1a1a1a",
".e c #232323",
".Y c #27d927",
".T c #28d928",
".d c #292929",
".c c #323232",
".Z c #38db38",
"#h c #3a3a3a",
".b c #3c3c3c",
".n c #444444",
".M c #44dd44",
".a c #4b4b4b",
".# c #535353",
"#a c #555555",
"## c #606060",
".R c #636363",
".B c #656565",
".A c #676767",
".F c #71e471",
".W c #75e575",
".v c #857f7a",
".S c #92ea92",
".m c #989898",
".L c #99eb99",
".E c #aaeeaa",
".l c #b4b4b4",
".u c #b9b1aa",
".K c #c6b8ac",
".k c #c6c6c6",
"#q c #c7a081",
"#j c #c8a487",
"#p c #c8a488",
"#g c #c9a88d",
".r c #c9c9c9",
"#e c #cbac93",
"#. c #cdb19b",
"#o c #ceb5a0",
".1 c #cfb8a5",
".t c #cfcbc4",
".Q c #d0bcab",
"#n c #d2c0b1",
".y c #d3cac2",
"#m c #d4c4b8",
"#l c #d6c8be",
".j c #d6d6d6",
"#k c #d8d0ca",
".i c #dedede",
".q c #e0e0e0",
"#i c #e7c2a2",
"#f c #e8c5a6",
"#d c #eac9ac",
".x c #eadfd5",
"#b c #eccdb4",
".p c #ececec",
".9 c #eed2bb",
"#c c #efd6c0",
".0 c #f0d9c5",
".s c #f0eeec",
".V c #f1dcca",
".P c #f3e2d3",
".O c #f5e5d8",
".J c #f6e9dd",
".I c #f7ebe1",
".D c #f8ede5",
".H c #f9f1eb",
".C c #fbf6f1",
".w c #fcf9f6",
".o c #fefefe",
"QtQtQtQtQtQtQtQtQtQtQtQtQtQtQtQtQtQtQtQtQtQt",
"QtQtQt.#.a.b.b.c.d.e.f.f.g.h.hQtQtQtQtQtQtQt",
"QtQtQt.a.i.i.i.i.i.i.j.k.l.h.m.hQtQtQtQtQtQt",
"QtQtQt.n.i.o.o.o.o.o.o.p.q.f.r.m.hQtQtQtQtQt",
"QtQtQt.b.q.o.o.o.o.o.o.o.p.d.o.r.m.hQtQtQtQt",
"QtQtQt.b.i.o.o.o.o.o.o.o.o.b.q.o.r.m.hQtQtQt",
"QtQtQt.c.i.o.o.o.o.o.o.o.o.#.b.d.f.h.hQtQtQt",
"QtQtQt.d.i.o.o.o.o.o.o.o.o.o.s.t.u.v.hQtQtQt",
"QtQtQt.d.i.o.o.o.o.o.o.o.o.o.w.x.y.m.hQtQtQt",
"QtQtQt.z.i.o.o.o.A.h.h.h.B.C.C.D.x.u.hQtQtQt",
"QtQtQt.z.i.o.o.o.h.E.F.G.h.H.D.I.J.K.hQtQtQt",
"QtQtQt.f.i.o.o.o.h.L.M.N.h.D.I.O.P.Q.hQtQtQt",
"QtQtQt.g.i.R.h.h.h.S.T.U.h.h.h.B.V.Q.hQtQtQt",
"QtQtQt.g.i.h.E.L.S.W.T.X.Y.Z.G.h.0.1.hQtQtQt",
"QtQtQt.g.i.h.F.M.T.T.2.3.3.4.5.h.0.1.hQtQtQt",
"QtQtQt.h.i.h.G.N.U.X.3.6.7.8.8.h.9#..hQtQtQt",
"QtQtQt.h.i##.h.h.h.Y.3.7.h.h.h#a#b#..hQtQtQt",
"QtQtQt.h.i.w.C.H.h.Z.4.8.h#c.9#b#d#e.hQtQtQt",
"QtQtQt.h.i.H.H.I.h.G.5.8.h.9#b#d#f#g.hQtQtQt",
"QtQtQt.h.i.H.I.O.a.h.h.h#h#b#d#f#i#j.hQtQtQt",
"QtQtQt.h#k#k.y#l#m#n.Q.1#o#.#e#g#p#q.hQtQtQt",
"QtQtQt.h.h.h.h.h.h.h.h.h.h.h.h.h.h.h.hQtQtQt"};
