/* XPM */
static const char *edit_add_16x16_xpm[]={
"16 16 53 1",
". c None",
"m c #000000",
"O c #004500",
"N c #005100",
"L c #006500",
"M c #007d00",
"w c #008900",
"D c #00a000",
"K c #00a900",
"s c #00bd00",
"J c #00c000",
"F c #00ce00",
"I c #00d400",
"G c #27d927",
"C c #28d928",
"h c #303030",
"H c #38db38",
"Y c #3a3a3a",
"k c #424242",
"v c #44dd44",
"X c #4b4b4b",
"Q c #555555",
"# c #585858",
"P c #606060",
"A c #636363",
"n c #656565",
"l c #676767",
"f c #6c6c6c",
"j c #707070",
"r c #71e471",
"E c #75e575",
"i c #898989",
"p c #8f8984",
"B c #92ea92",
"c c #999999",
"u c #99eb99",
"q c #aaeeaa",
"b c #bcb7b1",
"W c #c79f80",
"T c #c8a487",
"V c #cbac94",
"g c #cecece",
"z c #d0bcac",
"U c #d7cfc9",
"a c #dedede",
"o c #e4e0db",
"S c #e9c7aa",
"e c #eaeaea",
"R c #ecceb4",
"y c #f7ebe1",
"x c #faf2ec",
"t c #fbf6f2",
"d c #fefefe",
"..#########.....",
"..#aaaaab#c#....",
"..#addddefdc#...",
"..#adddddfgdch..",
"..#adddddijfkh..",
"..#adlmmmnobph..",
"..#admqrsmtobh..",
"..#admuvwmxyzh..",
"..AmmmBCDmmmnh..",
"..mquBECFGHsmh..",
"..mrvCCIJJKLmh..",
"..mswDFJMNOOmh..",
"..PmmmGJNmmmQh..",
"..#axmHKOmRSTh..",
"..#UUmsLOmVTWh..",
"..#hhXmmmYhhhh.."};
