/* XPM */
static const char * edit_remove_22x22_xpm[] = {
"22 22 83 1",
" 	c None",
".	c #F13030",
"+	c #D00D0D",
"@	c #CE1111",
"#	c #CD1111",
"$	c #CC1111",
"%	c #CA1111",
"&	c #C91111",
"*	c #C81111",
"=	c #C61111",
"-	c #C51111",
";	c #C41111",
">	c #C21111",
",	c #C11111",
"'	c #C01111",
")	c #CA1313",
"!	c #9F0B0B",
"~	c #E73333",
"{	c #BB0000",
"]	c #B90000",
"^	c #B80000",
"/	c #B60000",
"(	c #B50000",
"_	c #B20000",
":	c #AE0000",
"<	c #AB0000",
"[	c #A80000",
"}	c #A30000",
"|	c #A00000",
"1	c #9D0000",
"2	c #9A0000",
"3	c #770202",
"4	c #DF3131",
"5	c #B10000",
"6	c #B00000",
"7	c #AC0000",
"8	c #AA0000",
"9	c #A60000",
"0	c #9F0000",
"a	c #960000",
"b	c #970000",
"c	c #940000",
"d	c #760101",
"e	c #AF0000",
"f	c #AD0000",
"g	c #A50000",
"h	c #A20000",
"i	c #9E0000",
"j	c #990000",
"k	c #950000",
"l	c #740000",
"m	c #DB3131",
"n	c #9C0000",
"o	c #930000",
"p	c #920000",
"q	c #720000",
"r	c #DA3131",
"s	c #A70000",
"t	c #A40000",
"u	c #910000",
"v	c #700000",
"w	c #E23636",
"x	c #A10000",
"y	c #A20101",
"z	c #A00101",
"A	c #A10101",
"B	c #8F0000",
"C	c #8D0000",
"D	c #760000",
"E	c #AE1B1B",
"F	c #800000",
"G	c #820202",
"H	c #830202",
"I	c #810202",
"J	c #800202",
"K	c #7F0202",
"L	c #7C0000",
"M	c #7B0000",
"N	c #790000",
"O	c #770000",
"P	c #710000",
"Q	c #6F0000",
"R	c #6E0000",
"                      ",
"                      ",
"                      ",
"                      ",
"                      ",
"                      ",
"                      ",
" .+@@@@##$%&*=-;>,')! ",
" ~{]]]]^]/(_:<[}|1123 ",
" 4(_____566789}02abcd ",
" 46eee66e6f<8ghijakcl ",
" m<877<<7<8[9}0naoppq ",
" rsg99ss9gthh12jcpouv ",
" w}xyyzAz0injacuBCBpD ",
" EFGHIIJKLMNODqPQRQDR ",
"                      ",
"                      ",
"                      ",
"                      ",
"                      ",
"                      ",
"                      "};
