/* XPM */
static const char * edit_add_16x16_xpm[] = {
"16 16 93 2",
"  	c None",
". 	c #EB2D2D",
"+ 	c #D70101",
"@ 	c #CC0404",
"# 	c #CB0505",
"$ 	c #D60808",
"% 	c #770A0A",
"& 	c #D52B2B",
"* 	c #BC0000",
"= 	c #AD0000",
"- 	c #AE0000",
"; 	c #B50101",
"> 	c #650808",
", 	c #D22B2B",
"' 	c #BA0000",
") 	c #AF0000",
"! 	c #B60303",
"~ 	c #620A0A",
"{ 	c #CF3232",
"] 	c #B90000",
"^ 	c #B50303",
"/ 	c #5D0A0A",
"( 	c #BE1212",
"_ 	c #A50A0A",
": 	c #A10A0A",
"< 	c #A11414",
"[ 	c #CE2C2C",
"} 	c #B20000",
"| 	c #AA0000",
"1 	c #9C0909",
"2 	c #970E0E",
"3 	c #9C0E0E",
"4 	c #A30E0E",
"5 	c #980C0C",
"6 	c #E91111",
"7 	c #C20000",
"8 	c #C30000",
"9 	c #C10000",
"0 	c #B40000",
"a 	c #AB0000",
"b 	c #A80000",
"c 	c #930202",
"d 	c #D40F0F",
"e 	c #B00000",
"f 	c #AC0000",
"g 	c #A10000",
"h 	c #9C0000",
"i 	c #970000",
"j 	c #9B0000",
"k 	c #860000",
"l 	c #D30F0F",
"m 	c #A90000",
"n 	c #A50000",
"o 	c #A20000",
"p 	c #9D0000",
"q 	c #980000",
"r 	c #E11111",
"s 	c #B70000",
"t 	c #B80000",
"u 	c #B50000",
"v 	c #A70000",
"w 	c #A20202",
"x 	c #A30000",
"y 	c #9F0000",
"z 	c #910000",
"A 	c #870909",
"B 	c #710303",
"C 	c #6E0505",
"D 	c #6C0707",
"E 	c #AF0F0F",
"F 	c #A40000",
"G 	c #9F0606",
"H 	c #731010",
"I 	c #4D0000",
"J 	c #4E0000",
"K 	c #510000",
"L 	c #C43434",
"M 	c #9E0000",
"N 	c #A00202",
"O 	c #3C0303",
"P 	c #C83131",
"Q 	c #9A0000",
"R 	c #9C0101",
"S 	c #3E0202",
"T 	c #CF3333",
"U 	c #A60000",
"V 	c #3E0101",
"W 	c #C12929",
"X 	c #920000",
"Y 	c #8A0000",
"Z 	c #8C0000",
"` 	c #940000",
" .	c #420000",
"                                ",
"          . + @ # $ %           ",
"          & * = - ; >           ",
"          , ' - ) ! ~           ",
"          { ] ) - ^ /           ",
"  ( _ : < [ } ) = | 1 2 3 4 5   ",
"  6 7 8 9 0 } ) a b = - | - c   ",
"  d - e ) ) ) ) f b g h i j k   ",
"  l f ) ) - f f m n o p q h k   ",
"  r s t u m m v n g w x y o z   ",
"  A B C D E m o F G H I J K K   ",
"          L b j M N O           ",
"          P x i Q R S           ",
"          T U j y M V           ",
"          W X Y Z `  .          ",
"                                "};
