/* XPM */
static const char *edit_remove_22x22_xpm[]={
"22 22 93 2",
"Qt c None",
".h c #000000",
".g c #0a0a0a",
".f c #121212",
".z c #1a1a1a",
".e c #232323",
".d c #292929",
".c c #323232",
".b c #3c3c3c",
".n c #444444",
".a c #4b4b4b",
".# c #535353",
".W c #5f2d2b",
"#p c #6c6763",
".O c #6e3b39",
"#f c #7b554f",
"## c #7c5853",
"#j c #7d5855",
".1 c #7e3c3b",
".v c #857f7a",
"#r c #96897e",
"#m c #977b71",
".m c #989898",
".S c #9f0000",
".l c #b4b4b4",
".u c #b9b1aa",
"#d c #bf0000",
"#q c #c4b3a4",
".F c #c6b8ac",
".k c #c6c6c6",
"#A c #c7a081",
"#t c #c8a487",
"#z c #c8a488",
"#o c #c9a88d",
".r c #c9c9c9",
"#h c #cbac93",
".8 c #cdb19b",
"#y c #ceb5a0",
".T c #cebebe",
"#. c #cf0000",
".Y c #cfb8a5",
".t c #cfcbc4",
".K c #d0bcab",
"#x c #d2c0b1",
".y c #d3cac2",
"#w c #d4c4b8",
"#v c #d6c8be",
".j c #d6d6d6",
"#u c #d8d0ca",
".2 c #d9cfc8",
"#e c #dc5855",
".i c #dedede",
".V c #df0000",
".q c #e0e0e0",
"#a c #e4d4c6",
"#s c #e7c2a2",
"#k c #e7dacf",
"#n c #e8c5a6",
"#g c #eac9ac",
".x c #eadfd5",
"#c c #eccdb4",
".p c #ececec",
".5 c #ee2d2c",
".7 c #eed2bb",
"#b c #efd6c0",
".6 c #efd8c2",
".X c #f0d9c5",
".s c #f0eeec",
".Q c #f1dcca",
".P c #f2e0cf",
".J c #f3e2d3",
".I c #f5e5d8",
".E c #f6e9dd",
".D c #f7ebe1",
"#l c #f87f76",
".B c #f8ede5",
".C c #f9f1eb",
".H c #fb9693",
".A c #fbf6f1",
"#i c #fc6a67",
".w c #fcf9f6",
".U c #fd8a87",
".9 c #fd8c8a",
".G c #fd9996",
".0 c #fe5e5d",
".3 c #fe7c7b",
".M c #fe9e9e",
".R c #febebe",
".Z c #fedede",
".o c #fefefe",
".4 c #ff0000",
".N c #ff0f0f",
".L c #ff4040",
"QtQtQtQtQtQtQtQtQtQtQtQtQtQtQtQtQtQtQtQtQtQt",
"QtQtQt.#.a.b.b.c.d.e.f.f.g.h.hQtQtQtQtQtQtQt",
"QtQtQt.a.i.i.i.i.i.i.j.k.l.h.m.hQtQtQtQtQtQt",
"QtQtQt.n.i.o.o.o.o.o.o.p.q.f.r.m.hQtQtQtQtQt",
"QtQtQt.b.q.o.o.o.o.o.o.o.p.d.o.r.m.hQtQtQtQt",
"QtQtQt.b.i.o.o.o.o.o.o.o.o.b.q.o.r.m.hQtQtQt",
"QtQtQt.c.i.o.o.o.o.o.o.o.o.#.b.d.f.h.hQtQtQt",
"QtQtQt.d.i.o.o.o.o.o.o.o.o.o.s.t.u.v.hQtQtQt",
"QtQtQt.d.i.o.o.o.o.o.o.o.o.o.w.x.y.m.hQtQtQt",
"QtQtQt.z.i.o.o.o.o.o.o.o.o.A.A.B.x.u.hQtQtQt",
"QtQtQt.z.i.o.o.o.o.o.o.o.w.C.B.D.E.F.hQtQtQt",
"QtQtQt.f.i.o.o.o.o.o.o.G.H.B.D.I.J.K.hQtQtQt",
"QtQtQt.g.i.o.L.M.o.w.G.N.O.D.I.P.Q.K.hQtQtQt",
"QtQtQt.g.i.o.R.S.T.U.V.W.D.I.P.Q.X.Y.hQtQtQt",
"QtQtQt.g.i.o.Z.L.0.V.1.2.E.I.J.Q.X.Y.hQtQtQt",
"QtQtQt.h.i.o.o.3.4.5.2.E.I.P.Q.6.7.8.hQtQtQt",
"QtQtQt.h.i.o.9.4.4#.###a.J.Q#b.7#c.8.hQtQtQt",
"QtQtQt.h.i.w.4#d#e.4#d#f.X#b.7#c#g#h.hQtQtQt",
"QtQtQt.h.i#i#.#j#k#l.S#m#b.7#c#g#n#o.hQtQtQt",
"QtQtQt.h.i#i#p.I.J#q#r#b.7#c#g#n#s#t.hQtQtQt",
"QtQtQt.h#u#u.y#v#w#x.K.Y#y.8#h#o#z#A.hQtQtQt",
"QtQtQt.h.h.h.h.h.h.h.h.h.h.h.h.h.h.h.hQtQtQt"};
