/* XPM */
static const char *edit_remove_16x16_xpm[]={
"16 16 72 2",
"Qt c None",
".h c #303030",
".k c #424242",
".# c #585858",
".f c #6c6c6c",
".j c #707070",
".A c #7e3b39",
".G c #863f3d",
".8 c #896057",
".i c #898989",
".n c #8f8984",
".S c #96766f",
".c c #999999",
".6 c #9b8580",
".1 c #a59688",
".0 c #ae0a0a",
".b c #bcb7b1",
".5 c #bf0000",
".Y c #bf7974",
".R c #c30000",
".X c #c30807",
"#d c #c6b3a4",
".7 c #c78a7f",
"#f c #c79f80",
"#. c #c8a487",
"#e c #c8b09f",
".3 c #caa98e",
".U c #cbac94",
"#a c #ccb5b0",
".O c #cdb19c",
".J c #ceb6a4",
".g c #cecece",
".v c #d0bcac",
"#b c #d2c6bd",
"#c c #d3c3b7",
"## c #d8ccc6",
".L c #da3938",
".a c #dedede",
".x c #df3030",
".V c #dfdbdb",
".M c #e0d5cc",
".4 c #e2c2c2",
".m c #e4e0db",
".F c #e71313",
".B c #e7dad0",
".9 c #e9c7aa",
".e c #eaeaea",
".2 c #ecceb4",
".s c #ee3e3d",
".T c #eed4bd",
".z c #ef1e1e",
".N c #f0dac6",
".E c #f27573",
".I c #f2ddcb",
".C c #f3e1d2",
".H c #f5e6d9",
".t c #f6dbd6",
".l c #f6f5f5",
".D c #f74848",
".u c #f7ebe1",
".o c #fbf6f2",
".y c #fdc9c7",
".Z c #fe1211",
".W c #fe6d6c",
".w c #febebe",
".P c #fecece",
".r c #fed2d2",
".q c #fee6e6",
".p c #feeeee",
".d c #fefefe",
".K c #ff0000",
".Q c #ff1313",
"QtQt.#.#.#.#.#.#.#.#.#QtQtQtQtQt",
"QtQt.#.a.a.a.a.a.b.#.c.#QtQtQtQt",
"QtQt.#.a.d.d.d.d.e.f.d.c.#QtQtQt",
"QtQt.#.a.d.d.d.d.d.f.g.d.c.hQtQt",
"QtQt.#.a.d.d.d.d.d.i.j.f.k.hQtQt",
"QtQt.#.a.d.d.d.d.d.l.m.b.n.hQtQt",
"QtQt.#.a.d.d.d.d.d.d.o.m.b.hQtQt",
"QtQt.#.a.p.q.d.d.r.s.t.u.v.hQtQt",
"QtQt.#.a.w.x.g.y.z.A.B.C.v.hQtQt",
"QtQt.#.a.d.D.E.F.G.B.H.I.J.hQtQt",
"QtQt.#.a.d.w.K.L.M.H.C.N.O.hQtQt",
"QtQt.#.a.P.Q.K.R.S.C.N.T.U.hQtQt",
"QtQt.#.V.W.X.Y.Z.0.1.T.2.3.hQtQt",
"QtQt.#.4.5.6.H.7.8.T.2.9#..hQtQt",
"QtQt.####a#b#c#d#e.O.U#.#f.hQtQt",
"QtQt.#.h.h.h.h.h.h.h.h.h.h.hQtQt"};
