/* XPM */
static const char *exit_22x22_xpm[] = {
/* columns rows colors chars-per-pixel */
"22 22 99 2",
"   c #000000",
".  c #631006",
"X  c #641108",
"o  c #761207",
"O  c #771409",
"+  c #78170c",
"@  c #7c1b0d",
"#  c #7d1e10",
"$  c #7e2114",
"%  c #80170a",
"&  c #81180c",
"*  c #802316",
"=  c #802418",
"-  c #bb2b16",
";  c #bf3621",
":  c #b93d21",
">  c #b54925",
",  c #b7542a",
"<  c #b8562d",
"1  c #b45032",
"2  c #b95531",
"3  c #b95b34",
"4  c #bb5e39",
"5  c #bb633c",
"6  c #bf683e",
"7  c #be6742",
"8  c #be6942",
"9  c #c23d29",
"0  c #c45737",
"q  c #c56243",
"w  c #c16d45",
"e  c #c26e48",
"r  c #c86341",
"t  c #ca6945",
"y  c #ca6c49",
"u  c #c17047",
"i  c #c3734c",
"p  c #c3794f",
"a  c #cc724c",
"s  c #c37750",
"d  c #c47a54",
"f  c #c67e58",
"g  c #cb7652",
"h  c #c87b54",
"j  c #ca7d5b",
"k  c #d17d66",
"l  c #c58057",
"z  c #c6825b",
"x  c #c8855d",
"c  c #d2815e",
"v  c #cb8662",
"b  c #ca8963",
"n  c #cd8d68",
"m  c #cf936f",
"M  c #cd9273",
"N  c #d48462",
"B  c #d68866",
"V  c #d4896a",
"C  c #d88b6d",
"Z  c #d1926e",
"A  c #d29473",
"S  c #d5977a",
"D  c #d29976",
"F  c #d39b7b",
"G  c #da9074",
"H  c #d6a07f",
"J  c #d39d81",
"K  c #d89e81",
"L  c #d5a183",
"P  c #d7a588",
"I  c #d9a485",
"U  c #d9a688",
"Y  c #dda98d",
"T  c #dcad92",
"R  c #deb197",
"E  c #e0b296",
"W  c #e1b39b",
"Q  c #e5bda6",
"!  c #e7bda8",
"~  c #e8c3ad",
"^  c #e7cbbd",
"/  c #eac4b2",
"(  c #eccbb9",
")  c #edd0be",
"_  c #eacfc3",
"`  c #ebd3c6",
"'  c #edd5c9",
"]  c #f1d5c9",
"[  c #f2d9cd",
"{  c #f1ded5",
"}  c #f4e5dc",
"|  c #f6e9e1",
" . c #f8ece6",
".. c #f9eee9",
"X. c #faf0ea",
"o. c #fcf6f2",
"O. c #fffaf7",
"+. c #fefefe",
"@. c None",
/* pixels */
"@.    @.@.@.@.@.@.@.@.@.@.@.@.@.@.@.@.@.    ",
"@.  @.. & # = = $ = $ $ $ = $ $ $ # & X @.  ",
"  @.o 9 k G C V C V V C B B N N c c e ; O @.",
"@.X 9 M d 4 4 7 8 7 4 4 7 8 i i i d x f 9 . ",
"@.% k f > 1 4 3 , e V S n i 5 e i p i x q @ ",
"@.$ G 4 2 4 3 e ! } +.+.+.} ! d i d f j a $ ",
"@.= C 4 4 3 j  .+.+.{ ^ } +.+.} v d x x a # ",
"@.= C 7 2 g | +.[ V i j h K | +.} x z x a # ",
"@.$ C 7 < ( +.] e 4 W +.J 6 B ..+.Q f b a # ",
"@.$ B 4 g ..+.v 5 u / +.T d i Y +.} x b a @ ",
"@.= V 4 A +.` 6 i e ~ +.T p l n X.O.H b a @ ",
"@.$ B 4 J +._ 5 d e / +.T d x b | O.P x t @ ",
"@.= V 5 S +.' w d i / +.E f x Z X.O.I m t @ ",
"@.$ B 8 B X.+.Z e d ( +.W x f T +.| D M t @ ",
"@.$ N i 6 ` +.[ h e ~ +.T p D ..+.( m F r @ ",
"@.$ N i w n X.+.[ D x Z b U  .+.| F F F r @ ",
"@.$ N i s u K X.+.o.{ ` } O.+...P D J J q @ ",
"@.# x f s h d A ) X.+.+.+...) H D H P J 3 @ ",
"@.& y n s f j f f D R R R H m F L P T M : & ",
"@.X ; 8 x l x x x x x x b M F F J J M 1 - X ",
"  @.+ ; q g a a a a y a y t r r q 0 : - + @.",
"@.  @.X & # # # # @ @ @ @ @ @ @ @ @ & X @.  "
};
