/* XPM */
static const char * find_22x22_xpm[] = {
"22 22 177 2",
"  	c None",
". 	c #59595A",
"+ 	c #3B3B3C",
"@ 	c #3E3E3F",
"# 	c #3C3C3D",
"$ 	c #404041",
"% 	c #585859",
"& 	c #979797",
"* 	c #5B5B5B",
"= 	c #FFFFFF",
"- 	c #5D5D5E",
"; 	c #49494A",
"> 	c #868787",
", 	c #AFB4B4",
"' 	c #BBC4C6",
") 	c #BBC5C6",
"! 	c #B2B7B7",
"~ 	c #7A7A7B",
"{ 	c #1D1D1D",
"] 	c #474747",
"^ 	c #3D3D3D",
"/ 	c #444445",
"( 	c #7B7879",
"_ 	c #CFDADA",
": 	c #E5F0F2",
"< 	c #DCF2F5",
"[ 	c #DDF4FA",
"} 	c #D7F3F8",
"| 	c #CCEFF7",
"1 	c #DCE7E9",
"2 	c #6F6F70",
"3 	c #434343",
"4 	c #E4E4E4",
"5 	c #4C4C4D",
"6 	c #7D7E7D",
"7 	c #E9F8FA",
"8 	c #C6EDF5",
"9 	c #BDE7F0",
"0 	c #A5DCEA",
"a 	c #9BD6E2",
"b 	c #BBE7EE",
"c 	c #444444",
"d 	c #8A8A8A",
"e 	c #767676",
"f 	c #C5CFD2",
"g 	c #B1E2EC",
"h 	c #9DD9E6",
"i 	c #8ACDD9",
"j 	c #81C9D6",
"k 	c #AFE1EC",
"l 	c #CED9D9",
"m 	c #29292A",
"n 	c #818181",
"o 	c #6C6C6C",
"p 	c #4A4A4A",
"q 	c #5C5C5C",
"r 	c #A2A7A7",
"s 	c #E5F4F8",
"t 	c #C3E9F0",
"u 	c #ACE0EB",
"v 	c #99D8E6",
"w 	c #87CDDC",
"x 	c #6CBACB",
"y 	c #7BC4D4",
"z 	c #9DA2A1",
"A 	c #626262",
"B 	c #727272",
"C 	c #535353",
"D 	c #494949",
"E 	c #BAC0C1",
"F 	c #E7F3F6",
"G 	c #CBE9F2",
"H 	c #86D1E1",
"I 	c #6CC3D9",
"J 	c #50A6B9",
"K 	c #6AB5C3",
"L 	c #B2C7CB",
"M 	c #454545",
"N 	c #4F4F4F",
"O 	c #4B4B4B",
"P 	c #373737",
"Q 	c #E3F2F4",
"R 	c #C5E7EC",
"S 	c #A8E1EB",
"T 	c #96D7E7",
"U 	c #74C8DD",
"V 	c #5BB1C4",
"W 	c #4399A8",
"X 	c #54ACB9",
"Y 	c #0C0C0C",
"Z 	c #D3D3D3",
"` 	c #464646",
" .	c #434344",
"..	c #A6ABAA",
"+.	c #D8EDF1",
"@.	c #B1DBE4",
"#.	c #96D5E5",
"$.	c #4DBACE",
"%.	c #449AA9",
"&.	c #3D8996",
"*.	c #63B5C4",
"=.	c #ABDFEA",
"-.	c #232323",
";.	c #FCFCFC",
">.	c #78C3D3",
",.	c #68BDCF",
"'.	c #4CB7CB",
").	c #4298A7",
"!.	c #398491",
"~.	c #489EAD",
"{.	c #404647",
"].	c #484848",
"^.	c #797A79",
"/.	c #D7F0F4",
"(.	c #A4DBE9",
"_.	c #79BFCC",
":.	c #60B3C5",
"<.	c #52A7B3",
"[.	c #4496A5",
"}.	c #50A3B5",
"|.	c #8ACFE1",
"1.	c #000000",
"2.	c #8E8E8E",
"3.	c #5C5D5C",
"4.	c #BAE4EF",
"5.	c #99D4E0",
"6.	c #87CAD6",
"7.	c #BDE6F0",
"8.	c #414648",
"9.	c #AC993F",
"0.	c #6C6D6C",
"a.	c #7B7C7B",
"b.	c #79989C",
"c.	c #A9C7CE",
"d.	c #B3CAD0",
"e.	c #88A8AD",
"f.	c #6B7274",
"g.	c #DECE9D",
"h.	c #635920",
"i.	c #4D4D4E",
"j.	c #595959",
"k.	c #737374",
"l.	c #757576",
"m.	c #717172",
"n.	c #707071",
"o.	c #424849",
"p.	c #414748",
"q.	c #BDA44C",
"r.	c #717171",
"s.	c #686868",
"t.	c #928237",
"u.	c #747475",
"v.	c #767677",
"w.	c #373738",
"x.	c #939393",
"y.	c #E3E3E3",
"z.	c #363637",
"A.	c #777778",
"B.	c #E1E1E1",
"C.	c #39393A",
"D.	c #3B3B3B",
"E.	c #DCDCDC",
"F.	c #828282",
"G.	c #CECECE",
"H.	c #3A3F40",
"I.	c #727273",
"J.	c #313131",
"K.	c #575757",
"L.	c #393939",
"M.	c #EEEEEE",
"N.	c #3D3D3E",
"O.	c #9D9D9D",
"P.	c #FEFEFE",
"Q.	c #323233",
"R.	c #7F7F80",
"S.	c #0B0B0B",
"T.	c #4D4D4D",
"          . + @ # $ %               & * =   ",
"      - ; > , ' ) ! ~ { ]           * ^ = & ",
"    / ( _ : < [ } | [ 1 2 3         4 4   * ",
"  5 6 1 7 = 7 8 9 0 a b 1 6 c       d e =   ",
"  ; f 7 = = = 7 g h i j k l m     n o * p = ",
"q r 1 < s = 7 t u v w x y k z A   B * C D = ",
"; E F G G 7 t k v H I J K g L M   N O M P   ",
"; ' Q R b g S T H U V W X S L Y   Z ` P =   ",
" ...+.@.a v #.H U $.%.&.*.=.r -.    ;.=     ",
"o 6 _ k i j >.,.'.).!.~.#._ {.]             ",
"  ].^./.(._.:.<.[.&.}.|.+.z 1.              ",
"  2.3.6 +.4.5.6.>.w 7.+.6 8.1.9.            ",
"    * 0.a.b.c.R R d.e.f.8.1.= g.h.          ",
"      q i.j.k.l.m.n.o.p.1.q.g.= k.$         ",
"          r.i.N p D s.  h.t.o.u.= v.w.      ",
"  x.C y.                  h.z.o.A.B.~ C.    ",
"  * D.E.F.M G.              z.z.H.I.G.2 J.  ",
"  = =   K.L.M.                1.z.o.n.G.n.N.",
"O.d e   P.y.                    Q.z.o.n.R.$ ",
"n o * ].4 & * =                   1.z.o.S.$ ",
"e * C D 4 * ^ =                     1.1.$   ",
"K.T.M P = = =                               "};
