/* XPM */
static const char * find_16x16_xpm[] = {
"18 18 195 2",
"  	c None",
". 	c #5F5F60",
"+ 	c #515253",
"@ 	c #3E3E3F",
"# 	c #545556",
"$ 	c #5C5D5E",
"% 	c #737373",
"& 	c #C1C1C1",
"* 	c #5F5C5D",
"= 	c #6B6D6E",
"- 	c #ABB1B0",
"; 	c #D0DCDD",
"> 	c #D8E8EB",
", 	c #D1DFE2",
"' 	c #B0B7BA",
") 	c #555556",
"! 	c #504F4E",
"~ 	c #797979",
"{ 	c #CCCCCC",
"] 	c #919191",
"^ 	c #525152",
"/ 	c #8C8F90",
"( 	c #DCEAEB",
"_ 	c #FEFFFF",
": 	c #E2FBFF",
"< 	c #CFF3FC",
"[ 	c #C0EDF9",
"} 	c #C2F1FB",
"| 	c #DAF3F6",
"1 	c #9A9999",
"2 	c #454545",
"3 	c #BBBBBB",
"4 	c #EBEBEB",
"5 	c #626467",
"6 	c #DAE7E9",
"7 	c #FFFFFF",
"8 	c #FAFEFE",
"9 	c #CEEEF4",
"0 	c #A3DBE8",
"a 	c #8BCEDC",
"b 	c #98D8E4",
"c 	c #CEE9ED",
"d 	c #6A6968",
"e 	c #858585",
"f 	c #636363",
"g 	c #616161",
"h 	c #E0E0E0",
"i 	c #686969",
"j 	c #BCC3C3",
"k 	c #E4F7F9",
"l 	c #E2F4F9",
"m 	c #E3F6F8",
"n 	c #BAE5EE",
"o 	c #A1DBE8",
"p 	c #89D0DF",
"q 	c #65B7C8",
"r 	c #94D8E8",
"s 	c #B2C9CC",
"t 	c #787675",
"u 	c #757575",
"v 	c #525252",
"w 	c #343434",
"x 	c #DBDBDB",
"y 	c #DBE3E5",
"z 	c #DCF4FB",
"A 	c #C3E6F1",
"B 	c #DCF3F7",
"C 	c #B5E3EE",
"D 	c #9FDBE8",
"E 	c #89D3E4",
"F 	c #6BC3DA",
"G 	c #449BAE",
"H 	c #7EC7D4",
"I 	c #C7EAF2",
"J 	c #6E6E6E",
"K 	c #2F2F2F",
"L 	c #474747",
"M 	c #D1DCDC",
"N 	c #D2EFF4",
"O 	c #AEDFE7",
"P 	c #A5DDEA",
"Q 	c #9CDBE8",
"R 	c #6CCADE",
"S 	c #51A9BC",
"T 	c #398491",
"U 	c #75C7D4",
"V 	c #C1E1E7",
"W 	c #353635",
"X 	c #CFCFCF",
"Y 	c #909090",
"Z 	c #DDDDDD",
"` 	c #666666",
" .	c #ADB2B2",
"..	c #C9ECF3",
"+.	c #92D3E0",
"@.	c #87CDDB",
"#.	c #80C9D9",
"$.	c #68C4D8",
"%.	c #48ADC0",
"&.	c #4398A6",
"*.	c #A7E0EC",
"=.	c #9BA6A9",
"-.	c #BACBCC",
";.	c #B3EAF7",
">.	c #71BECB",
",.	c #52ABBC",
"'.	c #3F99A8",
").	c #378FA1",
"!.	c #92D9EC",
"~.	c #DEF0F1",
"{.	c #464648",
"].	c #212328",
"^.	c #7D7D7C",
"/.	c #64615F",
"(.	c #C5CDCE",
"_.	c #BFE6F0",
":.	c #A3DDE8",
"<.	c #93D8E4",
"[.	c #94D8E7",
"}.	c #C4EFF9",
"|.	c #D1DBDD",
"1.	c #515050",
"2.	c #10131B",
"3.	c #A39243",
"4.	c #636262",
"5.	c #6B7D7F",
"6.	c #A5B6BB",
"7.	c #B8CBCD",
"8.	c #ADBABD",
"9.	c #768C8F",
"0.	c #494E52",
"a.	c #1A1910",
"b.	c #BDA44C",
"c.	c #FFFFF3",
"d.	c #635920",
"e.	c #3B3A3A",
"f.	c #6B6969",
"g.	c #5E5B5C",
"h.	c #595657",
"i.	c #5B5D5E",
"j.	c #292B26",
"k.	c #A3965A",
"l.	c #B2B2B3",
"m.	c #828282",
"n.	c #A7A7A7",
"o.	c #555555",
"p.	c #252525",
"q.	c #424243",
"r.	c #64581B",
"s.	c #504C2D",
"t.	c #393E44",
"u.	c #A8A8AA",
"v.	c #C3C3C3",
"w.	c #4D4D4D",
"x.	c #9B9B9B",
"y.	c #9D9D9D",
"z.	c #404040",
"A.	c #363535",
"B.	c #2F2F32",
"C.	c #3A3F40",
"D.	c #979698",
"E.	c #B1B1B1",
"F.	c #4A494B",
"G.	c #777777",
"H.	c #5F5F5F",
"I.	c #F4F4F4",
"J.	c #000000",
"K.	c #323133",
"L.	c #434748",
"M.	c #99999B",
"N.	c #A1A1A2",
"O.	c #3D3D3E",
"P.	c #8D8D8D",
"Q.	c #6C6C6C",
"R.	c #444444",
"S.	c #FBFBFB",
"T.	c #D0D0D0",
"U.	c #282729",
"V.	c #212222",
"W.	c #4D5152",
"X.	c #535455",
"Y.	c #0B0B0B",
"Z.	c #5B5B5B",
"`.	c #393939",
" +	c #CACACA",
".+	c #5C5C5C",
"++	c #565656",
"@+	c #020202",
"#+	c #121313",
"$+	c #242527",
"%+	c #2B2B2B",
"&+	c #5A5A5A",
"*+	c #C6C6C6",
"=+	c #E3E3E3",
"-+	c #DEDEDE",
"        . + @ # $             % &   ",
"    * = - ; > , ' ) !         ~ { ] ",
"  ^ / ( _ : < [ } | 1 2       3 4   ",
"  5 6 7 7 8 9 0 a b c d     e f g h ",
"i j k l 7 m n o p q r s t   u v w x ",
"@ y z A B C D E F G H I 2   J K L   ",
"@ M N O P Q E R S T U V W   X Y Z   ",
"`  ...+.@.#.$.%.T &.*.=.2           ",
"  @ -.;.>.,.'.T ).!.~.{.].          ",
"  ^./.(._.:.<.[.}.|.1.2.3.          ",
"    4.@ 5.6.7.8.9.0.a.b.c.d.        ",
"      e.f.g.@ h.i.j.d.k.l.7 @       ",
"  m.n.o.K     p.q.  r.s.t.u.v.@     ",
"  w.x.y.z.Z           A.B.C.D.E.F.  ",
"  7 Z G.H.I.            J.K.L.M.N.O.",
"P.Q.R.S.T.Q.              U.V.W.X.Y.",
"u Z.`. +.+++7               @+#+$+%+",
"&+w.z.*+=+-+                        "};
