/* XPM */
static const char * font_16x16_xpm[] = {
"18 18 125 2",
"  	c None",
". 	c #585858",
"+ 	c #DEDEDE",
"@ 	c #BCB7B1",
"# 	c #999999",
"$ 	c #FFFFFF",
"% 	c #EAEAEA",
"& 	c #6D6D6D",
"* 	c #FCFCFC",
"= 	c #707070",
"- 	c #CECECE",
"; 	c #303030",
"> 	c #F3BFBF",
", 	c #F83737",
"' 	c #C71717",
") 	c #583A3A",
"! 	c #F1F1F1",
"~ 	c #898989",
"{ 	c #6B6B6B",
"] 	c #424242",
"^ 	c #FCE2E2",
"/ 	c #FF8686",
"( 	c #D01E1E",
"_ 	c #755555",
": 	c #E2E2E2",
"< 	c #F6F5F5",
"[ 	c #E2E0DE",
"} 	c #8F8984",
"| 	c #FED8D8",
"1 	c #BF9090",
"2 	c #B10606",
"3 	c #6B0000",
"4 	c #DBDBDB",
"5 	c #FBF9F6",
"6 	c #F4F0EC",
"7 	c #E7E0D9",
"8 	c #BEB6AF",
"9 	c #A26F6F",
"0 	c #FFB8B8",
"a 	c #663636",
"b 	c #A45252",
"c 	c #B40808",
"d 	c #886464",
"e 	c #F1EFEC",
"f 	c #F8F4ED",
"g 	c #F3EDE3",
"h 	c #EEE7DC",
"i 	c #BCAE97",
"j 	c #B32828",
"k 	c #B12828",
"l 	c #787878",
"m 	c #D0D0D0",
"n 	c #FF7171",
"o 	c #7A0101",
"p 	c #D5D2CB",
"q 	c #F5EFE5",
"r 	c #F3EBDC",
"s 	c #ECE2D4",
"t 	c #B80808",
"u 	c #B60909",
"v 	c #A50101",
"w 	c #E03E3E",
"x 	c #DE4242",
"y 	c #AB0303",
"z 	c #845D59",
"A 	c #EAE1D4",
"B 	c #F1E6D4",
"C 	c #ECDFCA",
"D 	c #BCAB90",
"E 	c #9E0000",
"F 	c #7C0101",
"G 	c #4D4D4D",
"H 	c #565554",
"I 	c #575654",
"J 	c #565451",
"K 	c #B00505",
"L 	c #800303",
"M 	c #CFC4B5",
"N 	c #EEE0CA",
"O 	c #ECDBC2",
"P 	c #BCA88A",
"Q 	c #9D0000",
"R 	c #411E1E",
"S 	c #B4B3B3",
"T 	c #E3E0DB",
"U 	c #E7E2DA",
"V 	c #E4DDD2",
"W 	c #E67E78",
"X 	c #E34040",
"Y 	c #8A584E",
"Z 	c #ECDCC1",
"` 	c #E9D6BA",
" .	c #BCA685",
"..	c #660000",
"+.	c #4E0000",
"@.	c #3B1F1F",
"#.	c #D2CFCC",
"$.	c #F7F1E9",
"%.	c #F4EDE2",
"&.	c #F2E8D9",
"*.	c #B44C47",
"=.	c #803A3A",
"-.	c #690808",
";.	c #9A8E7B",
">.	c #E7D1B0",
",.	c #BCA37F",
"'.	c #E2DDD6",
").	c #F4EDE1",
"!.	c #F2E8D8",
"~.	c #F0E4D0",
"{.	c #E1D2BC",
"].	c #C0B29C",
"^.	c #B8A991",
"/.	c #C4B095",
"(.	c #E5CCA7",
"_.	c #BCA178",
":.	c #C6C1B6",
"<.	c #C4BDAC",
"[.	c #C3B8A3",
"}.	c #C2B39A",
"|.	c #C0AF91",
"1.	c #BFAA88",
"2.	c #BEA57F",
"3.	c #BDA076",
"4.	c #BC9E73",
"        . . . . . . . . .           ",
"        . + + + + + @ . # .         ",
"        . + $ $ $ $ % & $ # .       ",
"        . + $ $ $ $ * = - $ # ;     ",
"        . > , ' ) ! $ ~ = { ] ;     ",
"        . ^ / ( _ : $ < [ @ } ;     ",
"        . | 1 2 3 4 $ 5 6 7 8 ;     ",
"        9 0 a b c d e f g h i ;     ",
"        j k l m n o p q r s i ;     ",
"        t u v w x y z A B C D ;     ",
"      E F G H I J K L M N O P ;     ",
"      Q R S T U V W X Y Z `  .;     ",
"    ..+.@.#.$.%.&.*.=.-.;.>.,.;     ",
"        . '.).!.~.{.].^./.(._.;     ",
"        . :.:.<.[.}.|.1.2.3.4.;     ",
"        . ; ; ; ; ; ; ; ; ; ; ;     ",
"                                    ",
"                                    "};
