/* XPM */
static const char *general_34x34_xpm[] = {
"34 34 160 2",
"  	c None",
". 	c #797979",
"+ 	c #7D7D7D",
"@ 	c #6E6E6E",
"# 	c #505050",
"$ 	c #171717",
"% 	c #606060",
"& 	c #D6D6D6",
"* 	c #B6B6B6",
"= 	c #C6C6C6",
"- 	c #C5C5C5",
"; 	c #A7A7A7",
"> 	c #898989",
", 	c #707070",
"' 	c #000000",
") 	c #696969",
"! 	c #838383",
"~ 	c #FFFFFF",
"{ 	c #ECECEC",
"] 	c #AAAAAA",
"^ 	c #7C7C7C",
"/ 	c #4B4B4B",
"( 	c #3A3A3B",
"_ 	c #5F5F5F",
": 	c #868686",
"< 	c #B3B3B3",
"[ 	c #D2D2D2",
"} 	c #787878",
"| 	c #474749",
"1 	c #575757",
"2 	c #020609",
"3 	c #0E1E1C",
"4 	c #969696",
"5 	c #646464",
"6 	c #636363",
"7 	c #575758",
"8 	c #6B6B6B",
"9 	c #A4A4A4",
"0 	c #6D6D6D",
"a 	c #4D4D4E",
"b 	c #464647",
"c 	c #123234",
"d 	c #E8F2F2",
"e 	c #7EC6C8",
"f 	c #529A98",
"g 	c #858585",
"h 	c #A5A5A5",
"i 	c #CCCCCC",
"j 	c #B5B5B5",
"k 	c #7F7F7F",
"l 	c #5B5B5C",
"m 	c #535353",
"n 	c #464648",
"o 	c #0A1A1C",
"p 	c #9EDEE0",
"q 	c #4A9290",
"r 	c #2A6A68",
"s 	c #DADADA",
"t 	c #D3D3D3",
"u 	c #919191",
"v 	c #4F4F50",
"w 	c #AEDEDA",
"x 	c #4E9698",
"y 	c #122A24",
"z 	c #D4D4D4",
"A 	c #BBBBBB",
"B 	c #9D9D9D",
"C 	c #575759",
"D 	c #3E3E3F",
"E 	c #5D5D5D",
"F 	c #9ADAE0",
"G 	c #3A8280",
"H 	c #8ED2D0",
"I 	c #3E8688",
"J 	c #A2A2A2",
"K 	c #B1B1B1",
"L 	c #878787",
"M 	c #3F3F40",
"N 	c #AC993F",
"O 	c #635920",
"P 	c #92D6D8",
"Q 	c #8ACED0",
"R 	c #B6E6E2",
"S 	c #6EB6B8",
"T 	c #020E0C",
"U 	c #939393",
"V 	c #B8B8B8",
"W 	c #D3BF7A",
"X 	c #82CAC8",
"Y 	c #AADADA",
"Z 	c #B2E2E2",
"` 	c #7AC2C0",
" .	c #6C6C6C",
"..	c #737373",
"+.	c #8A8A8A",
"@.	c #BDA44C",
"#.	c #C6EEF2",
"$.	c #62AAA8",
"%.	c #72BAB8",
"&.	c #367E80",
"*.	c #020204",
"=.	c #626262",
"-.	c #515152",
";.	c #928237",
">.	c #7E6F29",
",.	c #AFE8ED",
"'.	c #5AA2A0",
").	c #468E90",
"!.	c #ACACAC",
"~.	c #A6A6A6",
"{.	c #595959",
"].	c #454547",
"^.	c #303031",
"/.	c #815B20",
"(.	c #B49257",
"_.	c #916F34",
":.	c #553910",
"<.	c #76BEC0",
"[.	c #021214",
"}.	c #8D8D8D",
"|.	c #D0D0D0",
"1.	c #CDCDCD",
"2.	c #999999",
"3.	c #5A5A5B",
"4.	c #39393A",
"5.	c #D3B186",
"6.	c #F0E0C8",
"7.	c #B79658",
"8.	c #FAFAFA",
"9.	c #959595",
"0.	c #4E4E4F",
"a.	c #424243",
"b.	c #B48D5B",
"c.	c #010101",
"d.	c #8F8F8F",
"e.	c #ADADAD",
"f.	c #CACACA",
"g.	c #434344",
"h.	c #916B34",
"i.	c #B48B57",
"j.	c #9E7641",
"k.	c #7E7E7E",
"l.	c #808080",
"m.	c #929292",
"n.	c #3B3B3C",
"o.	c #322109",
"p.	c #B78B58",
"q.	c #99743A",
"r.	c #4F4F51",
"s.	c #373738",
"t.	c #B68F63",
"u.	c #5EA6A8",
"v.	c #D5B58C",
"w.	c #B18858",
"x.	c #886F2D",
"y.	c #A78446",
"z.	c #866327",
"A.	c #569EA0",
"B.	c #EBD4B3",
"C.	c #815719",
"                                                                    ",
"                              . + + + @ # $                         ",
"                          % . & * = - ; > , '                       ",
"                        ) ! ~ ~ { ] ^ / ( ( _                       ",
"                        : < [ ~ } | / 1         2 2 3               ",
"                4 % 5 6 7 8 9 0 a b           c d e f 2             ",
"              _ g h i j k l m n b           o d p q r 2             ",
"            4 , s ~ { t u 6 v (           2 d w x r 2     o y       ",
"            % z { ~ ~ A B C D E         2 d F G r 2     2 H I 3     ",
"            % J z { K L M N O           2 P w G 2     2 Q R S T     ",
"            . U V K L M ~ W N O         2 X Y Z G 2 2 X d ` I T     ",
"           ...L +.4 C @.W ~ W N O       2 #.X S H $.p d %.&.r *.    ",
"  % g > 8 =./ 6 -.b O ;.@.W ~ ;.>.O   2 d ,.X '.%.H X S ).r 2       ",
"% !.{ i ~.L {.].^.|   O ;.@.;./.(._.:.d ,.<.f &.G G G G [.2         ",
"=.}.|.~ 1.2.3.4.        O >.>.5.6.7._.:.<.q &.r *.2 2 2             ",
"  % L |.8.9.0.a.          O /.b.5.6.(._.:.&.r *.                    ",
"  c.E d.e.f.3.g.            :.h.b.5.6.i.j.:.*.                      ",
"    k.5 l.m.) n.            *.o.h.b.5.6.p.q.:.                      ",
"        r.s.n             *.d ,.o.h.b.5.6.t.h.:.                    ",
"                        ' #.,.S u.o.h.b.v.6.w.x.:.                  ",
"                      2 d ,.e u.&.*.o.h.b.5.6.y.z.:.                ",
"                    2 d ,.` u.&.r *.  o.h.b.5.6.y.z.:.              ",
"                  2 d ,.$.A.&.r *.      o.h.b.5.B.w.x.:.            ",
"                2 d ,.%.f &.r *.          o.h.b.5.B.(._.:.          ",
"              2 d ,.` f &.r 2               o.h.b.5.B.7./.:.        ",
"            2 d ,.e A.&.r 2                   o.h.b.5.B.y.C.:.      ",
"            2 #.X '.&.r 2                       o.h.b.5.(._.o.      ",
"            2 ,.A.&.r 2                           o.h.7.j.:.o.      ",
"              2 2 3 2                               o.h.:.:.:.      ",
"                                                      o.o.:.        ",
"                                                                    ",
"                                                                    ",
"                                                                    ",
"                                                                    "};
