/* XPM */
static const char * lock_big_xpm[] = {
"32 32 129 2",
"  	c None",
". 	c #010101",
"+ 	c #252525",
"@ 	c #4C4C4D",
"# 	c #3A3A3C",
"$ 	c #131313",
"% 	c #0C0C0C",
"& 	c #2A2A2A",
"* 	c #B4B4B4",
"= 	c #F2F2F2",
"- 	c #DDDDDD",
"; 	c #999996",
"> 	c #6C6C6C",
", 	c #171718",
"' 	c #8A8A8A",
") 	c #FEFEFE",
"! 	c #C3C3C4",
"~ 	c #CCCBCB",
"{ 	c #D6D6D9",
"] 	c #EBEBEB",
"^ 	c #AAAAAA",
"/ 	c #626262",
"( 	c #949494",
"_ 	c #737373",
": 	c #323233",
"< 	c #7C7C7C",
"[ 	c #C6C6CA",
"} 	c #1D1D1D",
"| 	c #9A9A9B",
"1 	c #D3D3D3",
"2 	c #828281",
"3 	c #BBBBBB",
"4 	c #A4A4A3",
"5 	c #424242",
"6 	c #564E21",
"7 	c #453D12",
"8 	c #464212",
"9 	c #5A5324",
"0 	c #655D26",
"a 	c #7C7335",
"b 	c #524C1D",
"c 	c #4E4A16",
"d 	c #4E4A1E",
"e 	c #3E3A14",
"f 	c #1A1A0A",
"g 	c #120E08",
"h 	c #817936",
"i 	c #766E2B",
"j 	c #706427",
"k 	c #6D652C",
"l 	c #666236",
"m 	c #665E2E",
"n 	c #605A31",
"o 	c #5E5A2A",
"p 	c #161606",
"q 	c #393413",
"r 	c #8D823E",
"s 	c #A49E5C",
"t 	c #9E9654",
"u 	c #B6B17C",
"v 	c #CDC998",
"w 	c #D5D0A0",
"x 	c #E2DEC2",
"y 	c #EAEADE",
"z 	c #D6D2A8",
"A 	c #D5D19E",
"B 	c #98915C",
"C 	c #8A8349",
"D 	c #333114",
"E 	c #565121",
"F 	c #857D39",
"G 	c #A6A266",
"H 	c #CDC693",
"I 	c #D2CE9D",
"J 	c #E2DEAE",
"K 	c #E6E2B6",
"L 	c #E6E3C4",
"M 	c #DEDAB6",
"N 	c #B6B26A",
"O 	c #AAA25B",
"P 	c #837B42",
"Q 	c #968E4A",
"R 	c #BEBA7A",
"S 	c #FAFAEE",
"T 	c #DCD8A8",
"U 	c #C5C08E",
"V 	c #C0BA8A",
"W 	c #B9B380",
"X 	c #B2AB78",
"Y 	c #ABA571",
"Z 	c #A49E69",
"` 	c #918B53",
" .	c #3B3618",
"..	c #525253",
"+.	c #625E52",
"@.	c #9D9661",
"#.	c #8F8851",
"$.	c #5F5930",
"%.	c #969276",
"&.	c #C6C2A6",
"*.	c #EAE6D6",
"=.	c #BEB886",
"-.	c #B0AA76",
";.	c #968F59",
">.	c #827D62",
",.	c #797248",
"'.	c #E4E4E4",
").	c #EAE6E6",
"!.	c #9E9EA2",
"~.	c #8D8B7F",
"{.	c #413C19",
"].	c #45411B",
"^.	c #49451A",
"/.	c #5B5B5B",
"(.	c #CED2D6",
"_.	c #766E38",
":.	c #DBD7A7",
"<.	c #CDC897",
"[.	c #AFA875",
"}.	c #A09963",
"|.	c #726A32",
"1.	c #7A722E",
"2.	c #AEAA66",
"3.	c #DEDA9E",
"4.	c #484014",
"5.	c #1A160C",
"6.	c #22221F",
"7.	c #1C1C14",
"8.	c #0E0E06",
"                                                                ",
"                          . + @ # $ . .                         ",
"                      % & * = = = - ; > . .                     ",
"                    , ' ) - ! ~ { - ] { ^ / +                   ",
"                  . ( ) * _ > : # # > < ~ ^ > .                 ",
"                * & - [ > } *       * . ' ! | & *               ",
"                + * 1 2 .               . * ( < .               ",
"                . 1 ! . :                 $ 3 2 .               ",
"                . ] 3 .                   : ~ ' .               ",
"                . = 4 .                   5 - ( .               ",
"                . - ^ .                   # ] ( .               ",
"                & - 4 .                   + = ( .               ",
"              6 & - 4 . 7 8 7 7 7 7 7 7 7 & = < . .             ",
"          9 0 a % [ * : b b c d 8 7 e 7 7 & { ; . f g           ",
"        6 h i i j . . 6 k l m n l m o l 9 7 p . 7 b q .         ",
"        6 r k r s t u v w x y ) ) y x z A u B C k 6 D .         ",
"        E F a G H I A w J K L L x M z H N O s P m E D .         ",
"        6 a Q R J S J T w I U V W X Y Z B B ` C k n  ..         ",
"        ..+.C R K S J T w v U V u X Y Z @.B #.C k $.q .         ",
"        ../ %.&.*.S J T w v U =.u -.Y Z B ;.#.>.,.m  ..         ",
"        ../ | [ '.) = ).'.{ 1 ~ [ 3 * ^ 4 !.( ~.>.n {..         ",
"        ../ | ! ] ) = '.'.- 1 ~ ! 3 * * !.!.( ~.>.m {..         ",
"        ../ ( ! '.) = '.y - 1 ~ [ 3 3 ^ 4 !.; ~.>.$.{..         ",
"        ../ | ! ] ) = ).).- { ~ [ &.* ^ 4 !.; ' >.n ]..         ",
"        ../ ; ! ).) = ).).- { 1 [ ! * * ^ !.( ~.>.n ]..         ",
"        ../ ; ! ] ) = '.).- { ~ [ &.* ^ 4 !.( ~.>.n ^..         ",
"        ../.!.[ '.) = ).'.'.{ (.[ ! 3 * ^ 4 ; ' >.$.^..         ",
"        /./ ; 3 ] ) = '.] - { (.[ ! * * 4 4 ; ' >.$.^..         ",
"        l _.` V L S J :.I <.U =.X [.Z }.;.` C P |.9 7 .         ",
"        1.1.C 2.3.S J :.I v U =.W -.Y }.B ` C P m d q .         ",
"          4.8 C X S K T w v V =.W [.Y @.B ` C P ^.. .           ",
"              D 5.} 6.7.7.7.7., f 5.5.5.5.5.8.g 8.              "};
