/* XPM */
static const char *lock_xpm[] = {
/* columns rows colors chars-per-pixel */
"16 16 68 1",
"  c #000000",
". c #1c1a0b",
"X c #211e0b",
"o c #23210e",
"O c #2a260e",
"+ c #262410",
"@ c #303030",
"# c #463f12",
"$ c #403b21",
"% c #494314",
"& c #4b451c",
"* c #4f481a",
"= c #48452b",
"- c #4f4c32",
"; c #5c5423",
": c #5e582c",
"> c #565437",
", c #635b29",
"< c #66602d",
"1 c #6b632b",
"2 c #6a6335",
"3 c #766f38",
"4 c #797030",
"5 c #5b5943",
"6 c #595856",
"7 c #585858",
"8 c #615e42",
"9 c #63614a",
"0 c #666354",
"q c #6b6a53",
"w c #716c4a",
"e c #867e47",
"r c #827d4f",
"t c #8a8454",
"y c #90884e",
"u c #958e58",
"i c #9a925d",
"p c #9e9858",
"a c #898561",
"s c #94907b",
"d c #a49d60",
"f c #a49d68",
"g c #a8a26d",
"h c #b3ac79",
"j c #b6b07c",
"k c #808080",
"l c #92918b",
"z c #afab8a",
"x c #bdb785",
"c c #a1a1a1",
"v c #aeaeae",
"b c #b2b2b2",
"n c #c2bd8b",
"m c #cbc69c",
"M c #d1cc9b",
"N c #d5d1a9",
"B c #dad6a3",
"V c #dbd6aa",
"C c #dfdbab",
"Z c #dfdbb3",
"A c #c2c2c2",
"S c #d2d2d2",
"D c #dcdcdc",
"F c #eeeccf",
"G c #f0eed5",
"H c #e2e2e2",
"J c #ececec",
"K c #f4f4f4",
/* pixels */
"      7777      ",
"     7Dccc@     ",
"    7A7@@7c7    ",
"    6c@  7q@    ",
"    7k@  7k@    ",
"    77   7k     ",
"   ,;**%#OX.+   ",
"  143rassa8>:+  ",
"  1pZBVNmxdy,.  ",
"  6zGCMnxgut2X  ",
"  7bKJHSAvclwX  ",
"  7vKJHSAvclw+  ",
"  7bKJHSAbclw+  ",
"  ,vKJHSAbclw+  ",
"  1dFCMnjgpe,.  ",
"   &0q98>-=@.   "
};
