/* XPM */
static const char *new_22x22_xpm[] = {
/* columns rows colors chars-per-pixel */
"22 22 61 1",
"  c #000000",
". c #0a0a0a",
"X c #121212",
"o c #1a1a1a",
"O c #232323",
"+ c #292929",
"@ c #323232",
"# c #3c3c3c",
"$ c #444444",
"% c #4b4b4b",
"& c #535353",
"* c #857f7a",
"= c #989898",
"- c #a09b97",
"; c #b9b1aa",
": c #b4b4b4",
"> c #c7a081",
", c #c8a487",
"< c #c8a488",
"1 c #c9a88d",
"2 c #cbac93",
"3 c #cdb19b",
"4 c #c6b8ac",
"5 c #ceb5a0",
"6 c #cfb8a5",
"7 c #d0bcab",
"8 c #d2c0b1",
"9 c #d4c4b8",
"0 c #d6c8be",
"q c #e7c2a2",
"w c #e8c5a6",
"e c #eac9ac",
"r c #eccdb4",
"t c #eed2bb",
"y c #c6c6c6",
"u c #cfcbc4",
"i c #c9c9c9",
"p c #d3cac2",
"a c #d8d0ca",
"s c #d6d6d6",
"d c #dedede",
"f c #efd6c0",
"g c #efd8c2",
"h c #eadfd5",
"j c #f0d9c5",
"k c #f1dcca",
"l c #e4e0db",
"z c #f2e0cf",
"x c #f3e2d3",
"c c #f5e5d8",
"v c #f6e9dd",
"b c #e0e0e0",
"n c #ececec",
"m c #f7ebe1",
"M c #f0eeec",
"N c #f8ede5",
"B c #f9f1eb",
"V c #fbf6f1",
"C c #fcf9f6",
"Z c #fefefe",
"A c None",
/* pixels */
"AAAAAAAAAAAAAAAAAAAAAA",
"AAA&%##@+OXX.  AAAAAAA",
"AAA%ddddddsy: = AAAAAA",
"AAA$dZZZZZZnbXi= AAAAA",
"AAA#bZZZZZZZn+Zi= AAAA",
"AAA#dZZZZZZZZ#bZi= AAA",
"AAA@dZZZZZZZZ&#+X  AAA",
"AAA+dZZZZZZZZZMu;* AAA",
"AAA+dZZZZZZZZZChp= AAA",
"AAAodZZZZZZZZVVNh; AAA",
"AAAodZZZZZZZCBNmv4 AAA",
"AAAXdZZZZZZVBNmcx7 AAA",
"AAA.dZZZZCVBNmczk7 AAA",
"AAA.dZZZZVBNmczkj6 AAA",
"AAA.dZZZCVBNvcxkj6 AAA",
"AAA dZZCVBNvczkgt3 AAA",
"AAA dZCVBNvxxkftr3 AAA",
"AAA dCVBmvxxjftre2 AAA",
"AAA dBBmvxkkftrew1 AAA",
"AAA dBmcxkkftrewq, AAA",
"AAA aap098765321<> AAA",
"AAA                AAA"
};
