/* XPM */
static const char *new_16x16_xpm[] = {
/* columns rows colors chars-per-pixel */
"16 16 44 1",
"  c #000000",
". c #303030",
"X c #424242",
"o c #585858",
"O c #6c6c6c",
"+ c #707070",
"@ c #8f8984",
"# c #898989",
"$ c #999999",
"% c #beb6af",
"& c #bcb7b1",
"* c #c79f80",
"= c #c8a487",
"- c #c9a68a",
"; c #caa98e",
": c #cbac94",
"> c #cdb19c",
", c #ceb6a4",
"< c #d0bcac",
"1 c #d1bfb0",
"2 c #d3c3b7",
"3 c #e9c7aa",
"4 c #ecceb4",
"5 c #eed4bd",
"6 c #cecece",
"7 c #d5c9c0",
"8 c #d7cfc9",
"9 c #dedede",
"0 c #f0dac6",
"q c #f2ddcb",
"w c #e4e0db",
"e c #f2e0cf",
"r c #f3e1d2",
"t c #f5e6d9",
"y c #f6e9de",
"u c #eaeaea",
"i c #f7ebe1",
"p c #f8ede4",
"a c #faf2ec",
"s c #f6f5f5",
"d c #fbf6f2",
"f c #fcf8f5",
"g c #fefefe",
"h c None",
/* pixels */
"hhooooooooohhhhh",
"hho99999&o$ohhhh",
"hho9gggguOg$ohhh",
"hho9gggggO6g$.hh",
"hho9ggggg#+OX.hh",
"hho9gggggsw&@.hh",
"hho9ggggggdw&.hh",
"hho9gggggdai<.hh",
"hho9gggfapyr<.hh",
"hho9ggfdpytq,.hh",
"hho9ggfaitr0>.hh",
"hho9gfaitr05:.hh",
"hho9faiyq054;.hh",
"hho9aptq0543=.hh",
"hho8872<,>:=*.hh",
"hho...........hh"
};
