/* XPM */
static const char *not_ok_16x16_xpm[]={
"16 16 4 1",
". c None",
"b c #000000",
"a c #c00000",
"# c #ff0000",
"................",
"..##........##..",
".#aab......#aab.",
".#aaab....#aaab.",
"..#aaab..#aaab..",
"...#aaab#aaab...",
"....#aaaaaab....",
".....#aaaab.....",
".....#aaaab.....",
"....#aaaaaab....",
"...#aaab#aaab...",
"..#aaab..#aaab..",
".#aaab....#aaab.",
".#aab......#aab.",
".#bb........bbb.",
"................"};
