/* XPM */
static const char *ok_16x16_xpm[]={
"16 16 5 1",
". c None",
"# c #000000",
"a c #008000",
"c c #00c000",
"b c #ffffff",
"................",
".............#a#",
"............aba#",
"...........aba#.",
"..........aba#..",
"....a....aba#...",
"...aba..ab##....",
"..abcca#bca#....",
"..#acccbc##.....",
"..##acccca#.....",
"...##acca#......",
"....##aca#......",
".....##a#.......",
"......###.......",
".......#........",
"................"};
