/* XPM */
static const char *password_34x34_xpm[] = {
"34 34 185 2",
"  	c None",
". 	c #B4701E",
"+ 	c #BF853D",
"@ 	c #BC8138",
"# 	c #C38C44",
"$ 	c #E5C97F",
"% 	c #F9EB7E",
"& 	c #FEF066",
"* 	c #FDEE5C",
"= 	c #F5E05D",
"- 	c #DCB652",
"; 	c #B47624",
"> 	c #D8B26E",
", 	c #FDF175",
"' 	c #FFF049",
") 	c #FFEC3D",
"! 	c #FFEB33",
"~ 	c #FFE825",
"{ 	c #FFE712",
"] 	c #FFE503",
"^ 	c #F8DE2F",
"/ 	c #C58F30",
"( 	c #D4AB64",
"_ 	c #FFF364",
": 	c #FFEE3F",
"< 	c #FFCD17",
"[ 	c #FFE623",
"} 	c #FFCC07",
"| 	c #FFE502",
"1 	c #FFE300",
"2 	c #FFE100",
"3 	c #FCDE13",
"4 	c #BB801B",
"5 	c #BC7F2F",
"6 	c #FBEF73",
"7 	c #FFEE3E",
"8 	c #FFEC33",
"9 	c #FFCE11",
"0 	c #FFE412",
"a 	c #FFC900",
"b 	c #FFE200",
"c 	c #FFE000",
"d 	c #FFDE00",
"e 	c #EEC60F",
"f 	c #945704",
"g 	c #BD8032",
"h 	c #DBBA7F",
"i 	c #DBBB7D",
"j 	c #DBBA7C",
"k 	c #DBBA7B",
"l 	c #DBBA7A",
"m 	c #DCBA79",
"n 	c #DCB977",
"o 	c #DCB976",
"p 	c #DCB974",
"q 	c #DCB972",
"r 	c #EAD27E",
"s 	c #FFF04A",
"t 	c #FFEA25",
"u 	c #FFD20B",
"v 	c #FFE202",
"w 	c #FFC700",
"x 	c #FCDB00",
"y 	c #EABF00",
"z 	c #F4CD00",
"A 	c #FFDB00",
"B 	c #BD8206",
"C 	c #BD8033",
"D 	c #EEE3A0",
"E 	c #F7F788",
"F 	c #F9F988",
"G 	c #F9F887",
"H 	c #F9F47E",
"I 	c #F9EF70",
"J 	c #FAE75F",
"K 	c #FAE04C",
"L 	c #FBD839",
"M 	c #FBD025",
"N 	c #FBC912",
"O 	c #FCC20F",
"P 	c #FCBE0E",
"Q 	c #FCBE0F",
"R 	c #FFED46",
"S 	c #FFE925",
"T 	c #FFE813",
"U 	c #FFD502",
"V 	c #FDDE00",
"W 	c #BD8405",
"X 	c #A1640B",
"Y 	c #EEC200",
"Z 	c #D6A003",
"` 	c #D9B667",
" .	c #FAFA8A",
"..	c #FFFF8C",
"+.	c #FFFF8B",
"@.	c #FFFC85",
"#.	c #FFF87A",
"$.	c #FFF46E",
"%.	c #FFEF62",
"&.	c #FFEB55",
"*.	c #FFE547",
"=.	c #FFE139",
"-.	c #FFDC34",
";.	c #FFD92E",
">.	c #FFD82A",
",.	c #FFED3D",
"'.	c #FFD800",
").	c #FFCA00",
"!.	c #F5CF00",
"~.	c #89550C",
"{.	c #D7A21D",
"].	c #E1AD00",
"^.	c #DFC259",
"/.	c #FFFF8A",
"(.	c #FFFE86",
"_.	c #FFFC80",
":.	c #FFFB7A",
"<.	c #FFF974",
"[.	c #FCF369",
"}.	c #FBEF60",
"|.	c #FFF45C",
"1.	c #FFF253",
"2.	c #FFE501",
"3.	c #FFDC00",
"4.	c #FFDD00",
"5.	c #FFCE00",
"6.	c #FDD901",
"7.	c #B87D14",
"8.	c #AC650C",
"9.	c #ECC850",
"0.	c #D9A402",
"a.	c #E0C35A",
"b.	c #FEFD8B",
"c.	c #D9B64E",
"d.	c #DBB94D",
"e.	c #CB9D35",
"f.	c #FBF575",
"g.	c #F4E45F",
"h.	c #AE7619",
"i.	c #BA8425",
"j.	c #FEF155",
"k.	c #FEEF49",
"l.	c #FEED3E",
"m.	c #FEEB33",
"n.	c #FFE812",
"o.	c #FFD300",
"p.	c #F9D725",
"q.	c #E4BE54",
"r.	c #F0D164",
"s.	c #FFDA0E",
"t.	c #C38805",
"u.	c #C4902E",
"v.	c #C5922B",
"w.	c #F0DE5A",
"x.	c #AD7519",
"y.	c #955A09",
"z.	c #A97210",
"A.	c #A7700D",
"B.	c #A76F0B",
"C.	c #A66F08",
"D.	c #C38B09",
"E.	c #FEE402",
"F.	c #FFD700",
"G.	c #FFD900",
"H.	c #F5C900",
"I.	c #975E0B",
"J.	c #A0620E",
"K.	c #E0B401",
"L.	c #C68B04",
"M.	c #A96A0C",
"N.	c #E7BB01",
"O.	c #FED600",
"P.	c #D39B02",
"Q.	c #9C600D",
"R.	c #D09903",
"S.	c #F4CB00",
"T.	c #FFDA00",
"U.	c #ECBC00",
"V.	c #BF8305",
"W.	c #9B600B",
"X.	c #B97E07",
"Y.	c #C88D02",
"Z.	c #C58A04",
"`.	c #AE7308",
" +	c #814F0C",
"                                                                    ",
"                                                                    ",
"                                                                    ",
"                                                                    ",
"                                                                    ",
"                                                                    ",
"                                                                    ",
"                                                                    ",
"                                                                    ",
"                                              . + @                 ",
"                                          # $ % & * = - ;           ",
"                                        > , ' ) ! ~ { ] ^ /         ",
"                                      ( _ ' : < [ } | 1 2 3 4       ",
"                                    5 6 ' 7 8 9 0 a 1 b c d e f     ",
"      g h i i i i i j k l m n o p q r s : 8 t u v w 2 x y z A B     ",
"    C D E F F G H I J K L M N O P Q R 7 ! S T U c w V W   X Y Z     ",
"    `  .......+.@.#.$.%.&.*.=.-.;.>.,.8 S { | '.d ).!.~.    {.].    ",
"      ^......./.(._.:.<.[.}.|.1.' 7 8 S { 2.1 3.4.5.6.7.  8.9.0.    ",
"        a.b.c.d.e.f.<.g.h.i.j.k.l.m.S n.| 1 2 d 3.o.A p.q.r.s.t.    ",
"          u.      v.w.x.  y.z.A.B.C.D.E.1 b c d 3.F.G.'.F.F.H.I.    ",
"                    J.                K.b c d 3.A G.'.F.F.F.L.      ",
"                                      M.N.d 3.A G.'.F.F.O.P.        ",
"                                        Q.R.S.T.G.'.O.U.V.          ",
"                                            W.X.Y.Z.`. +            ",
"                                                                    ",
"                                                                    ",
"                                                                    ",
"                                                                    ",
"                                                                    ",
"                                                                    ",
"                                                                    ",
"                                                                    ",
"                                                                    ",
"                                                                    "};
