/* XPM */
static const char *presentation_34x34_xpm[] = {
"34 34 297 2",
"  	c None",
". 	c #48413C",
"+ 	c #4B4A48",
"@ 	c #413F3D",
"# 	c #3D3C3B",
"$ 	c #272727",
"% 	c #626262",
"& 	c #ACA6A2",
"* 	c #ACBDCA",
"= 	c #599CD4",
"- 	c #3089D0",
"; 	c #2E80C1",
"> 	c #5C8BB0",
", 	c #808386",
"' 	c #868381",
") 	c #363636",
"! 	c #484848",
"~ 	c #969696",
"{ 	c #D4D4D4",
"] 	c #F6F1ED",
"^ 	c #C2DFF6",
"/ 	c #2799FA",
"( 	c #31A5FF",
"_ 	c #3AABFF",
": 	c #2198FD",
"< 	c #007AE3",
"[ 	c #2E7EBD",
"} 	c #BCC1C6",
"| 	c #C8C5C4",
"1 	c #959595",
"2 	c #333333",
"3 	c #3B3B3B",
"4 	c #848484",
"5 	c #E3E3E3",
"6 	c #F5F5F5",
"7 	c #FFFFFE",
"8 	c #F4F9FD",
"9 	c #35A0F9",
"0 	c #7BCDFF",
"a 	c #A7DEE9",
"b 	c #519CC8",
"c 	c #5DB6F2",
"d 	c #3CA6FF",
"e 	c #006CCF",
"f 	c #497FAA",
"g 	c #E8E5E2",
"h 	c #C6C6C6",
"i 	c #777777",
"j 	c #404040",
"k 	c #E1E1E1",
"l 	c #F7F7F7",
"m 	c #FFFFFF",
"n 	c #B3D8F7",
"o 	c #279BFE",
"p 	c #97D0E6",
"q 	c #6B7674",
"r 	c #413F3F",
"s 	c #2B434D",
"t 	c #61B1EA",
"u 	c #288CE9",
"v 	c #085BA1",
"w 	c #BCC3C9",
"x 	c #FEFCFB",
"y 	c #EFEFEF",
"z 	c #D9D9D9",
"A 	c #B2B2B2",
"B 	c #343434",
"C 	c #AAAAAA",
"D 	c #E8E8E8",
"E 	c #98C8F1",
"F 	c #2C9DFF",
"G 	c #4881A8",
"H 	c #6F6965",
"I 	c #8D8A89",
"J 	c #464441",
"K 	c #4E82A1",
"L 	c #50A1F1",
"M 	c #0A5AA2",
"N 	c #95A6B1",
"O 	c #EAEAEA",
"P 	c #BDBDBD",
"Q 	c #8F8F8F",
"R 	c #7E7E7E",
"S 	c #A6A6A6",
"T 	c #A5A5A5",
"U 	c #A4A4A4",
"V 	c #9D9D9D",
"W 	c #C9C9C9",
"X 	c #F9F3EF",
"Y 	c #AFD1EC",
"Z 	c #218FF3",
"` 	c #448FD0",
" .	c #3D4244",
"..	c #615B56",
"+.	c #434A4B",
"@.	c #5B90B4",
"#.	c #5398E4",
"$.	c #125A9B",
"%.	c #A6AEB4",
"&.	c #EFEDEB",
"*.	c #C3C3C3",
"=.	c #9F9F9F",
"-.	c #5B5B5B",
";.	c #5C5C5C",
">.	c #DDDDDD",
",.	c #FEFEFE",
"'.	c #F4F4F4",
").	c #C9C8C7",
"!.	c #DADDE0",
"~.	c #3189D5",
"{.	c #3096F8",
"].	c #4080BD",
"^.	c #325677",
"/.	c #4B7AA3",
"(.	c #5F9CDC",
"_.	c #2370BD",
":.	c #356790",
"<.	c #BAB8B6",
"[.	c #A0A0A0",
"}.	c #828282",
"|.	c #7D7D7D",
"1.	c #797979",
"2.	c #F2F2F2",
"3.	c #EDEDED",
"4.	c #F3F3F3",
"5.	c #F6F6F6",
"6.	c #F8F8F8",
"7.	c #EBEBEB",
"8.	c #C4C4C4",
"9.	c #C9C5C2",
"0.	c #99AFC0",
"a.	c #1673C0",
"b.	c #157EDD",
"c.	c #2786DE",
"d.	c #287ED1",
"e.	c #1468B6",
"f.	c #18588B",
"g.	c #7D8489",
"h.	c #B1AFAD",
"i.	c #A2A2A2",
"j.	c #8E8E8E",
"k.	c #B0B0B0",
"l.	c #9B9B9B",
"m.	c #727272",
"n.	c #FBFBFB",
"o.	c #EEEEEE",
"p.	c #BCBCBC",
"q.	c #949494",
"r.	c #8D8D8D",
"s.	c #909090",
"t.	c #919191",
"u.	c #868686",
"v.	c #6F6F6F",
"w.	c #948F8C",
"x.	c #88939B",
"y.	c #42749B",
"z.	c #20659B",
"A.	c #1F5F92",
"B.	c #3E6482",
"C.	c #7C8082",
"D.	c #999694",
"E.	c #818181",
"F.	c #575757",
"G.	c #737373",
"H.	c #C5C5C5",
"I.	c #DEDEDE",
"J.	c #AFAFAF",
"K.	c #353535",
"L.	c #A3A3A3",
"M.	c #E2E2E2",
"N.	c #E9E9E9",
"O.	c #E4E4E4",
"P.	c #878787",
"Q.	c #323232",
"R.	c #4C4947",
"S.	c #635E5A",
"T.	c #646262",
"U.	c #676564",
"V.	c #6B6663",
"W.	c #615F5E",
"X.	c #464646",
"Y.	c #2C2C2C",
"Z.	c #2F2F2F",
"`.	c #555555",
" +	c #D0D0D0",
".+	c #505050",
"++	c #646464",
"@+	c #808080",
"#+	c #4B4B4B",
"$+	c #373737",
"%+	c #3A3A3A",
"&+	c #3D3D3D",
"*+	c #3F3F3F",
"=+	c #424242",
"-+	c #444444",
";+	c #454545",
">+	c #414141",
",+	c #3E3E3D",
"'+	c #40403F",
")+	c #41403F",
"!+	c #3E3E3E",
"~+	c #494949",
"{+	c #232323",
"]+	c #5D5D5D",
"^+	c #CBCBCB",
"/+	c #A7A7A7",
"(+	c #545454",
"_+	c #999999",
":+	c #D2D2D2",
"<+	c #DCDCDC",
"[+	c #4F4F4F",
"}+	c #525252",
"|+	c #565656",
"1+	c #595959",
"2+	c #5E5E5E",
"3+	c #5F5F5F",
"4+	c #606060",
"5+	c #616161",
"6+	c #1F1F1F",
"7+	c #ACACAC",
"8+	c #D3D3D3",
"9+	c #CCCCCC",
"0+	c #666666",
"a+	c #434343",
"b+	c #686868",
"c+	c #6A6A6A",
"d+	c #6C6C6C",
"e+	c #6D6D6D",
"f+	c #939393",
"g+	c #AEAEAE",
"h+	c #CACACA",
"i+	c #9A9A9A",
"j+	c #CDCDCD",
"k+	c #656565",
"l+	c #696969",
"m+	c #717171",
"n+	c #747474",
"o+	c #757575",
"p+	c #767676",
"q+	c #707070",
"r+	c #D1D1D1",
"s+	c #9C9C9C",
"t+	c #6E6E6E",
"u+	c #787878",
"v+	c #7A7A7A",
"w+	c #676767",
"x+	c #989898",
"y+	c #CFCFCF",
"z+	c #C8C8C8",
"A+	c #F0F0F0",
"B+	c #B6B6B6",
"C+	c #7B7B7B",
"D+	c #7C7C7C",
"E+	c #2E2E2E",
"F+	c #ADADAD",
"G+	c #B5B5B5",
"H+	c #6B6B6B",
"I+	c #474747",
"J+	c #2D2D2D",
"K+	c #979797",
"L+	c #9E9E9E",
"M+	c #2B2B2B",
"N+	c #303030",
"O+	c #8C8C8C",
"P+	c #C1C1C1",
"Q+	c #2A2A2A",
"R+	c #898989",
"S+	c #ABABAB",
"T+	c #7F7F7F",
"U+	c #A9A9A9",
"V+	c #B9B9B9",
"W+	c #636363",
"X+	c #252525",
"Y+	c #858585",
"Z+	c #A8A8A8",
"`+	c #393939",
" @	c #BEBEBE",
".@	c #4E4E4E",
"+@	c #202020",
"@@	c #BBBBBB",
"#@	c #B4B4B4",
"$@	c #5A5A5A",
"%@	c #4C4C4C",
"&@	c #1E1E1E",
"*@	c #A1A1A1",
"=@	c #BFBFBF",
"-@	c #383838",
";@	c #4A4A4A",
">@	c #4D4D4D",
",@	c #282828",
"'@	c #292929",
")@	c #222222",
"!@	c #B1B1B1",
"~@	c #929292",
"{@	c #8B8B8B",
"]@	c #888888",
"^@	c #212121",
"                                                                    ",
"                                                                    ",
"                                    . + @   #                       ",
"                            $ % & * = - ; > , ' )                   ",
"                        ! ~ { ] ^ / ( _ : < [ } | 1 2 3             ",
"                      4 5 6 7 8 9 0 a b c d e f g 5 h i j           ",
"                        k l m n o p q r s t u v w x y z A B         ",
"                        C D m E F G H I J K L M N 7 O P Q           ",
"          R S T U U U V T W X Y Z `  ...+.@.#.$.%.&.*.=.-.          ",
"      ;.>.m m ,.,.m m m '.h ).!.~.{.].^./.(._.:.<.*.[.}.|.1.        ",
"      >.m 2.3.'.4.4.6 5.6.7.8.9.0.a.b.c.d.e.f.g.h.i.j.V k.l.m.      ",
"    Q n.o.7.7.p.q.r.j.s.s.t.u.v.w.x.y.z.A.B.C.D.E.F.G.H.I.J.j.K.    ",
"    L.M.N.O.P.! ) Q.2 2 2 2 K.B 2 R.S.T.U.V.W.X.Y.Y.Z.`.P  +l..+    ",
"    l. +3.V ++@+#+Q.$+%+&+*+=+-+;+>+,+'+)+!+3 j ~+>+{+{+]+^+/+(+    ",
"    _+:+<+v.U m l.B =+X.#+[+}+|+1+-.]+]+2+3+4+4+5+(+Y.6+$+S 7+`.    ",
"    _+8+9+0+U m 3.F.a+[+(+1+2+% 0+b+c+d+e+e+e+e+d+4+a+Y.Z.f+g+`.    ",
"    _+:+h+0+i+4.m j+;.|+4+k+l+e+m+G.n+o+o+p+o+n+q+k+~+Z.Z.t.g+`.    ",
"    _+r+W 0+s+'.m 6 U 3+% c+t+m.o+u+1.v+v+v+1.i n+w+! Z.Z.s.g+`.    ",
"    x+y+z+0+s+'.m A+B+i k+d+m+o+1.C+|.|.|.|.D+v+i l+! E+Z.Q F+`.    ",
"    x+j+h 0+V 6 m A+G+|.H+t+n+u+D+R @+E.E.@+R |.1.c+I+J+Z.r.F+`.    ",
"    K+^+*.0+L+'.m A+G+|.e+v.o+1.|.@+E.}.}.}.@+R v+c+X.M+N+O+7+|+    ",
"    x+W P+0+L+'.m A+G+|.e+v.o+1.|.@+E.}.}.}.@+R v+l+a+Q+N+R+S+`.    ",
"    K+h P 0+L+'.m A+G+|.c+t+n+u+D+T+@+E.E.E.T+R 1.0+>+$ Z.P.U+|+    ",
"    ~ *.V+0+L+6 m 2.G+d+W+d+m+o+1.C+R R T+R R D+u+++&+X+Z.Y+Z+|+    ",
"    ~ P+B+0+L+6 m o.T+|+5+b+e+m+n+u+v+v+C+C+v+v+p+5+`+{+Z.}.S |+    ",
"    ~  @A 0+=.6.m q..@-.5+0+c+t+q+G.o+p+p+p+p+o+m.2+2 +@Z.T+U |+    ",
"    ~ @@#@++G.q.e+#+`.$@]+4+W+0+w+l+l+l+l+b+w+0+++c+%@&@Q.}.*@|+    ",
"    Q F+=@m+j -@B >+-+;+I+! ;@#+%@%@%@%@%@#+~+~+! ;+Q.{+=+f+s+}+    ",
"    n+x+#@U >@N+,@'@'@'@'@'@'@'@'@'@,@,@,@,@$ $ $ )@)@B m.L+s.$+    ",
"      r._+!@_+$@j !+!+!+!+!+!+!+!+!+&+&+&+&+&+&+&+*+%@o+_+q.v.      ",
"      ;@P.1 [.[.~@j.s.t.~@f+q.q.f+f+f+t.s.Q r.{@]@R+~@K+t.o+^@      ",
"          1+q+o+p+u+u+1.v+v+v+C+C+C+v+v+1.1.u+i p+p+G.c+!           ",
"                                                                    ",
"                                                                    "};
