/* XPM */
static const char *qpamat_16x16_xpm[] = {
"16 16 135 2",
"  	c None",
". 	c #383839",
"+ 	c #262628",
"@ 	c #010101",
"# 	c #3A3A3A",
"$ 	c #AEAEAE",
"% 	c #DDDCDD",
"& 	c #E0E0E1",
"* 	c #B2B2B2",
"= 	c #444444",
"- 	c #4A4A4A",
"; 	c #CDCDCE",
"> 	c #6C6C6C",
", 	c #717171",
"' 	c #3A3A3C",
") 	c #676767",
"! 	c #B1B0B1",
"~ 	c #4C4C4C",
"{ 	c #6B6B6B",
"] 	c #868686",
"^ 	c #1A1A1A",
"/ 	c #434343",
"( 	c #939393",
"_ 	c #787878",
": 	c #585858",
"< 	c #797979",
"[ 	c #545454",
"} 	c #303030",
"| 	c #C1C1C1",
"1 	c #685F29",
"2 	c #767677",
"3 	c #636363",
"4 	c #4C4618",
"5 	c #4A4416",
"6 	c #453E12",
"7 	c #433C12",
"8 	c #38341E",
"9 	c #B7B7B7",
"0 	c #070703",
"a 	c #6E662E",
"b 	c #7A7130",
"c 	c #6D6636",
"d 	c #76724E",
"e 	c #A29D71",
"f 	c #ACA88F",
"g 	c #ADAA90",
"h 	c #9F9B72",
"i 	c #8A8454",
"j 	c #4E4B2B",
"k 	c #564F1F",
"l 	c #1C1A0A",
"m 	c #6B642C",
"n 	c #9E9758",
"o 	c #DFDBB3",
"p 	c #DAD6A5",
"q 	c #DCD8A8",
"r 	c #D4D0A8",
"s 	c #CBC69C",
"t 	c #BCB785",
"u 	c #A49E5F",
"v 	c #908A4E",
"w 	c #625C2B",
"x 	c #1C1A0C",
"y 	c #5A5956",
"z 	c #A9A478",
"A 	c #F1EFDA",
"B 	c #DFDBAB",
"C 	c #D1CC9C",
"D 	c #C2BC8B",
"E 	c #B4AE7A",
"F 	c #A8A26D",
"G 	c #99925C",
"H 	c #8A8453",
"I 	c #6B6434",
"J 	c #1E1B0B",
"K 	c #5A5A5A",
"L 	c #AFAFB1",
"M 	c #F3F3F3",
"N 	c #ECECEC",
"O 	c #DFDFE0",
"P 	c #D0CFCF",
"Q 	c #C0C0C1",
"R 	c #A0A0A2",
"S 	c #90908A",
"T 	c #726C49",
"U 	c #211E0D",
"V 	c #ADADAE",
"W 	c #E4E2E0",
"X 	c #D0D0D0",
"Y 	c #C3C2BD",
"Z 	c #B1B1B1",
"` 	c #A1A1A2",
" .	c #92928D",
"..	c #716B49",
"+.	c #22200E",
"@.	c #AEAEAD",
"#.	c #F4F3F3",
"$.	c #E4E2E2",
"%.	c #D3D2D4",
"&.	c #C5C4C0",
"*.	c #A2A2A4",
"=.	c #716C4A",
"-.	c #24220E",
";.	c #5A5A5B",
">.	c #AEAEAF",
",.	c #E4E4E4",
"'.	c #D2D4D8",
").	c #C4C4C7",
"!.	c #B6B6B6",
"~.	c #A6A6A5",
"{.	c #929290",
"].	c #706B49",
"^.	c #25230E",
"/.	c #746D32",
"(.	c #A29C63",
"_.	c #EEECD0",
":.	c #DEDAAA",
"<.	c #D0CB9A",
"[.	c #C2BC8A",
"}.	c #B2AC79",
"|.	c #A49D68",
"1.	c #948E57",
"2.	c #867F46",
"3.	c #605928",
"4.	c #201D0A",
"5.	c #565225",
"6.	c #797664",
"7.	c #807E64",
"8.	c #767458",
"9.	c #6C694F",
"0.	c #676343",
"a.	c #5F5A3A",
"b.	c #575232",
"c.	c #4B4626",
"d.	c #1D1C0B",
"              . + @             ",
"          # $ % & * =           ",
"        - ; > , ' ) ! ~         ",
"        { ] ^       / ( @       ",
"        _ :         # * @       ",
"        < [         } | @       ",
"      1 2 3 4 5 6 7 8 9 0       ",
"    a b c d e f g h i j k l     ",
"    m n o p q r s t u v w x     ",
"    y z A B C D E F G H I J     ",
"    K L M N O P Q * R S T U     ",
"    K V M N W X Y Z `  ...+.    ",
"    K @.#.N $.%.&.* *.S =.-.    ",
"    ;.>.M N ,.'.).!.~.{.].^.    ",
"    /.(._.:.<.[.}.|.1.2.3.4.    ",
"      5.6.7.8.9.0.a.b.c.d.      "};
