/* XPM */
static const char *qt_16x16_xpm[] = {
"16 16 53 1",
" 	c None",
".	c #A2C511",
"+	c #85A20E",
"@	c #4B5B08",
"#	c #2E3805",
"$	c #2F3905",
"%	c #4C5D08",
"&	c #A0C311",
"*	c #4D5D08",
"=	c #040500",
"-	c #000000",
";	c #000100",
">	c #010200",
",	c #050600",
"'	c #4B5C08",
")	c #0D1001",
"!	c #586B09",
"~	c #83A00E",
"{	c #84A10E",
"]	c #576A09",
"^	c #0F1201",
"/	c #010100",
"(	c #4D5E08",
"_	c #0D0F01",
":	c #88A50E",
"<	c #93B30F",
"[	c #748D0C",
"}	c #030300",
"|	c #94B410",
"1	c #1F2503",
"2	c #070801",
"3	c #738C0C",
"4	c #2E3705",
"5	c #2F3A05",
"6	c #2E3905",
"7	c #94B30F",
"8	c #202703",
"9	c #1E2503",
"0	c #93B20F",
"a	c #84A00E",
"b	c #080901",
"c	c #1F2603",
"d	c #1E2403",
"e	c #4A5A08",
"f	c #86A30E",
"g	c #0F1202",
"h	c #87A40E",
"i	c #030400",
"j	c #020200",
"k	c #131702",
"l	c #94B40F",
"m	c #526409",
"n	c #A0C211",
"................",
"................",
".....+@#$%+.....",
"...&*=--;>,'&...",
"...*>)!~{]^/(...",
"..+=_:..<[:_}+..",
"..'-!..|123!-%..",
"..4-~.|1/1<{-5..",
"..6;{78>-90a/$..",
"..'>!3bcd-9e/*..",
"..f,gh3<0d--i+..",
"...'j)!aae-/kl..",
"...&%}-//-ik/m..",
".....+%5#(+<mn..",
"................",
"................"};
