/* XPM */
static const char *save_16x16_xpm[]={
"18 18 85 2",
".q c None",
".p c None",
"Qt c None",
".f c None",
".e c None",
".l c None",
".c c None",
".m c None",
".d c None",
".a c None",
".# c None",
".b c None",
".i c None",
".k c None",
".j c None",
".h c None",
".g c None",
".n c #1c1c1c",
".o c #404040",
"#j c #424242",
"#s c #535353",
"#q c #545454",
"#m c #585858",
"#i c #5b5b5b",
"#b c #5f5f5f",
"#a c #606060",
"## c #626262",
"#. c #646464",
".5 c #666666",
".4 c #676767",
".2 c #696969",
".D c #69a5a5",
".9 c #6b6b6b",
".T c #6d6d6d",
".8 c #6e6e6e",
".P c #707070",
".7 c #727272",
".F c #737373",
".6 c #757575",
".A c #777777",
".3 c #797979",
"#p c #7b7b7b",
".U c #7c7c7c",
"#o c #7d7d7d",
".Q c #808080",
".G c #838383",
"#l c #858585",
".r c #878787",
"#h c #8b8b8b",
"#g c #8e8e8e",
"#r c #a7a7a7",
".C c #abbbb6",
"#n c #b2b2b2",
"#k c #bcbcbc",
"#f c #c7c7c7",
"#e c #d1d1d1",
"#d c #dbdbdb",
"#c c #e6e6e6",
".1 c #f4e5d8",
".S c #f5e7db",
".0 c #f5e8dc",
".O c #f6e8dd",
".E c #f6eae0",
".N c #f7ebe1",
".z c #f7ece2",
".Z c #f7ede4",
".M c #f8eee5",
".y c #f8eee6",
".Y c #f9f0e8",
".L c #f9f0e9",
".x c #f9f1ea",
".X c #faf2ec",
".K c #faf3ed",
".w c #faf4ee",
".W c #fbf5f0",
".J c #fbf6f1",
".v c #fbf6f2",
".V c #fcf8f4",
".I c #fcf8f5",
".u c #fcf9f6",
".R c #fcf9f7",
".H c #fdfbf9",
".t c #fdfcfa",
".B c #fefdfc",
".s c #ffffff",
"QtQt.#.a.b.c.d.c.e.f.g.h.g.i.j.k.l.m",
"QtQt.n.n.o.o.o.o.o.o.o.o.n.n.p.p.l.m",
".q.n.r.o.s.t.u.v.w.x.y.z.o.A.n.q.q.q",
".q.n.r.o.B.C.D.D.D.D.C.E.o.F.n.q.q.q",
".q.n.G.o.H.I.J.K.L.M.N.O.o.P.n.q.q.q",
".q.n.Q.o.R.C.D.D.D.D.C.S.o.T.n.q.q.q",
".q.n.U.o.V.W.X.Y.Z.E.0.1.o.2.n.q.q.q",
".q.n.3.A.o.o.o.o.o.o.o.o.4.5.n.q.q.q",
".q.n.6.F.7.P.8.T.9.2.4.5#.##.n.q.q.q",
".q.n.7.P.8.o.o.o.o.o.o.o#a#b.n.q.q.q",
".q.n.8.T.o#c#d#e#f.o#g#h.o#i.n.q.q.q",
".q.n.9.2.o#d#j#j#k.o#l.G.o#m.n.q.q.q",
".q.n.4.5.o#e#j.5#n.o#o#p.o#q.n.q.q.q",
".q.n#.##.o#f#k#n#r.o.6.F.o#s.n.q.q.q",
".q.q.n.n.n.o.o.o.o.n.n.n.n.n.q.q.q.q",
".q.q.q.q.q.q.q.q.q.q.q.q.q.q.q.q.q.q",
".q.q.q.q.q.q.q.q.q.q.q.q.q.q.q.q.q.q",
".q.q.q.q.q.q.q.q.q.q.q.q.q.q.q.q.q.q"};
