/* XPM */
static const char *smartcard_xpm[]={
"48 48 91 2",
"Qt c None",
".t c #000000",
".Q c #08071c",
".N c #09061b",
".R c #09081c",
".U c #09081d",
"#f c #09091c",
"#. c #090a1c",
"#h c #0a091d",
"#a c #0a091e",
"#d c #0a0a1c",
".1 c #0a0a1d",
"#p c #0a0a1e",
".W c #0a0a1f",
"#w c #0b091c",
".8 c #0b091d",
"#m c #0b091e",
".6 c #0b0a1c",
".3 c #0b0a1d",
"#j c #0b0a1e",
"#t c #0b0b1e",
"#y c #0c0b1d",
".Y c #0c0b1f",
".O c #100d21",
".0 c #111020",
".9 c #111021",
"## c #111022",
"#e c #111121",
"#x c #121021",
"#c c #121022",
".S c #121023",
"#i c #121120",
".7 c #121123",
"#g c #131020",
".5 c #131121",
".T c #131123",
".V c #131222",
".P c #131223",
"#l c #141221",
"#k c #141222",
"#n c #141322",
"#o c #151221",
"#q c #151322",
"#r c #151323",
".X c #151423",
"#u c #151424",
"#s c #181625",
"#v c #191625",
".e c #211b12",
".B c #231c12",
".f c #271e10",
".j c #291f0e",
".k c #2b200f",
".g c #2b2110",
".d c #2c2110",
".u c #2c2111",
".l c #2c2210",
".4 c #2c2417",
"#b c #2c2826",
".b c #2d210f",
".c c #2d220f",
".2 c #2d2416",
".i c #2e2311",
".# c #2e2312",
".Z c #2e2517",
".v c #2f2310",
".C c #2f2311",
".D c #2f2410",
".h c #2f2411",
".s c #2f2412",
".n c #302412",
".A c #302511",
".o c #302512",
".a c #312310",
".x c #322511",
".p c #322612",
".q c #322712",
".w c #332712",
".r c #332713",
".m c #342713",
".G c #342812",
".E c #342813",
".y c #352812",
".H c #352813",
".z c #362913",
".L c #362914",
".I c #372a14",
".F c #392b14",
".K c #3c2f15",
".J c #3d2f15",
".M c #ffff00",
"QtQtQtQtQtQtQtQtQtQtQtQtQtQtQtQtQtQtQtQtQtQtQtQtQtQtQtQtQtQtQtQtQtQtQtQtQtQtQtQtQtQtQtQtQtQtQtQt",
"QtQtQtQtQtQtQtQtQtQtQtQtQtQtQtQtQtQtQtQtQtQtQtQtQtQtQtQtQtQtQtQtQtQtQtQtQtQtQtQtQtQtQtQtQtQtQtQt",
"QtQtQtQtQtQtQtQtQtQtQtQtQtQtQtQtQtQtQtQtQtQtQtQtQtQtQtQtQtQtQtQtQtQtQtQtQtQtQtQtQtQtQtQtQtQtQtQt",
"QtQtQtQtQtQtQtQtQtQtQtQtQtQtQtQtQtQtQtQtQtQtQtQtQtQtQtQtQtQtQtQtQtQtQtQtQtQtQtQtQtQtQtQtQtQtQtQt",
"QtQtQtQtQtQtQtQtQtQtQtQtQtQtQtQtQtQtQtQtQtQtQtQtQtQtQtQtQtQtQtQtQtQtQtQtQtQtQtQtQtQtQtQtQtQtQtQt",
"QtQtQtQtQtQtQt.#.a.b.c.d.e.f.g.h.i.j.k.l.m.h.n.o.p.q.r.s.t.t.t.t.t.t.t.t.t.t.t.t.tQtQtQtQtQtQtQt",
"QtQtQtQtQt.u.t.v.w.x.y.z.A.B.#.C.w.w.D.E.F.G.H.I.F.J.K.L.t.t.t.t.t.t.t.t.t.t.t.t.t.t.tQtQtQtQtQt",
"QtQtQtQt.t.t.t.M.M.M.M.M.M.M.M.M.M.M.M.M.M.M.M.M.M.M.M.M.M.M.M.M.M.M.M.M.M.M.M.M.M.t.t.tQtQtQtQt",
"QtQtQt.t.t.t.M.M.M.M.M.M.M.t.t.t.t.t.t.t.t.t.t.t.t.t.t.t.t.t.M.M.M.M.M.M.M.M.M.M.M.M.t.t.NQtQtQt",
"QtQtQt.t.t.M.M.M.M.M.M.M.M.t.t.t.t.t.t.t.t.t.t.t.t.t.t.t.t.t.M.M.M.M.M.M.M.M.M.M.M.M.M.t.OQtQtQt",
"QtQt.t.t.M.M.M.M.M.M.M.M.t.t.M.M.M.M.M.M.M.M.M.M.M.M.M.M.t.t.M.M.M.M.M.M.M.M.M.M.M.M.M.M.P.QQtQt",
"QtQt.t.t.M.M.M.M.M.M.M.t.t.t.M.M.t.t.t.t.t.t.M.M.M.M.M.M.t.t.M.M.M.M.M.M.M.M.M.M.M.M.M.M.P.RQtQt",
"QtQt.t.t.M.M.M.M.M.M.t.t.t.M.M.t.t.t.t.t.t.t.M.M.M.M.M.M.t.t.M.M.M.M.M.M.M.M.M.M.M.M.M.M.S.QQtQt",
"QtQt.t.t.M.M.M.M.M.M.t.t.M.M.t.t.t.M.M.M.t.t.M.M.M.M.M.M.t.t.M.M.M.M.M.M.M.M.M.M.M.M.M.M.T.UQtQt",
"QtQt.t.t.t.t.t.t.t.t.t.t.M.t.t.t.t.M.M.M.t.t.t.t.t.t.t.t.t.t.t.t.t.t.t.t.t.t.t.t.t.t.t.t.V.WQtQt",
"QtQt.t.t.t.t.t.t.t.t.t.t.M.t.t.t.M.M.M.M.t.t.t.t.t.t.t.t.t.t.t.t.t.t.t.t.t.t.t.t.t.t.t.t.X.YQtQt",
"QtQt.t.t.M.M.M.M.M.M.M.M.M.t.t.M.M.M.M.M.M.M.M.M.M.M.M.M.M.M.M.Z.t.M.M.M.M.M.M.M.M.M.M.M.0.1QtQt",
"QtQt.t.t.M.M.M.M.M.M.M.M.M.t.t.M.M.M.M.M.M.M.M.M.M.M.M.M.M.M.M.2.t.M.M.M.M.M.M.M.M.M.M.M.P.3QtQt",
"QtQt.t.t.M.M.M.M.M.M.M.M.M.t.t.M.M.M.M.M.M.M.M.M.M.M.M.M.M.M.M.4.t.M.M.M.M.M.M.M.M.M.M.M.5.3QtQt",
"QtQt.t.t.M.M.M.M.M.M.M.M.M.t.t.M.M.M.M.M.M.M.M.M.M.M.M.M.M.M.M.t.t.M.M.M.M.M.M.M.M.M.M.M.V.6QtQt",
"QtQt.t.t.M.M.M.M.M.M.M.M.M.t.t.M.M.M.M.M.M.M.M.M.M.M.M.M.M.M.M.t.t.M.M.M.M.M.M.M.M.M.M.M.7.8QtQt",
"QtQt.t.t.M.M.M.M.M.M.M.M.M.t.t.M.M.M.M.M.M.M.M.M.M.M.M.M.M.M.M.t.t.M.M.M.M.M.M.M.M.M.M.M.9#.QtQt",
"QtQt.t.t.t.t.t.t.t.t.t.t.t.t.t.M.M.M.M.M.M.M.M.M.M.M.M.M.M.M.M.t.t.t.t.t.t.t.t.t.t.t.t.t###aQtQt",
"QtQt.t.t.t.t.t.t.t.t.t.t.t.t.t.M.M.M.M.M.M.M.M.M.M.M.M.M.M.M.M.t.t.t.t.t.t.t.t.t.t.t.t#b#c#dQtQt",
"QtQt.t.t.M.M.M.M.M.M.M.M.M.t.t.M.M.M.M.M.M.M.M.M.M.M.M.M.M.M.M.t.t.M.M.M.M.M.M.M.M.M.M.M#e#fQtQt",
"QtQt.t.t.M.M.M.M.M.M.M.M.M.t.t.M.M.M.M.M.M.M.M.M.M.M.M.M.M.M.M.t.t.M.M.M.M.M.M.M.M.M.M.M#g#hQtQt",
"QtQt.t.t.M.M.M.M.M.M.M.M.M.t.t.M.M.M.M.M.M.M.M.M.M.M.M.M.M.M.M.t.t.M.M.M.M.M.M.M.M.M.M.M#i#jQtQt",
"QtQt.t.t.M.M.M.M.M.M.M.M.M.t.t.M.M.M.M.M.M.M.M.M.M.M.M.M.M.M.M.t.t.M.M.M.M.M.M.M.M.M.M.M#k#hQtQt",
"QtQt.t.t.M.M.M.M.M.M.M.M.M.t.t.M.M.M.M.M.M.M.M.M.M.M.M.M.M.M.M.t.t.M.M.M.M.M.M.M.M.M.M.M#l#mQtQt",
"QtQt.t.t.M.M.M.M.M.M.M.M.M.t.t.M.M.M.M.M.M.M.M.M.M.M.M.M.M.M.t.t.t.M.M.M.M.M.M.M.M.M.M.M#n#jQtQt",
"QtQt.t.t.t.t.t.t.t.t.t.t.t.t.t.M.M.M.M.M.M.M.t.t.t.t.t.t.t.t.t.t.M.M.t.t.t.t.t.t.t.t.t.t#o#pQtQt",
"QtQt.t.t.t.t.t.t.t.t.t.t.t.t.t.M.M.M.M.M.M.M.t.t.t.t.t.t.t.t.M.M.M.t.t.t.t.t.t.t.t.t.t.t#q.8QtQt",
"QtQt.t.t.M.M.M.M.M.M.M.M.M.M.M.M.M.M.M.M.M.M.t.t.M.M.M.M.M.M.M.t.t.t.t.M.M.M.M.M.M.M.M.M#r#hQtQt",
"QtQt.t.t.M.M.M.M.M.M.M.M.M.M.M.M.M.M.M.M.M.M.t.t.M.M.M.M.M.t.t.t.t.M.M.M.M.M.M.M.M.M.M.M#s#tQtQt",
"QtQt.t.t.M.M.M.M.M.M.M.M.M.M.M.M.M.M.M.M.M.M.t.t.M.M.M.M.t.t.t.M.M.M.M.M.M.M.M.M.M.M.M.M#u#tQtQt",
"QtQt.t.t.M.M.M.M.M.M.M.M.M.M.M.M.M.M.M.M.M.M.t.t.M.M.M.M.t.t.M.M.M.M.M.M.M.M.M.M.M.M.M.M#v#wQtQt",
"QtQt.t.t.M.M.M.M.M.M.M.M.M.M.M.M.M.M.M.M.M.M.t.t.M.M.M.M.t.t.M.M.M.M.M.M.M.M.M.M.M.M.M.M#x#pQtQt",
"QtQt.t.t.M.M.M.M.M.M.M.M.M.M.M.M.M.M.M.M.M.M.t.t.t.t.t.t.t.t.M.M.M.M.M.M.M.M.M.M.M.M.M.M#y#wQtQt",
"QtQtQt.t.t.M.M.M.M.M.M.M.M.M.M.M.M.M.M.M.M.t.t.t.t.t.t.t.t.t.M.M.M.M.M.M.M.M.M.M.M.M.M.t.tQtQtQt",
"QtQtQt.t.t.t.M.M.M.M.M.M.M.M.M.M.M.M.M.M.t.t.M.M.M.M.M.M.M.M.M.M.M.M.M.M.M.M.M.M.M.M.t.t.tQtQtQt",
"QtQtQtQt.t.t.t.M.M.M.M.M.M.M.M.M.M.M.M.t.t.M.M.M.M.M.M.M.M.M.M.M.M.M.M.M.M.M.M.M.M.t.t.tQtQtQtQt",
"QtQtQtQtQt.t.t.t.t.t.t.t.t.t.t.t.t.t.t.t.t.t.t.t.t.t.t.t.t.t.t.t.t.t.t.t.t.t.t.t.t.t.tQtQtQtQtQt",
"QtQtQtQtQtQtQt.t.t.t.t.t.t.t.t.t.t.t.t.t.t.t.t.t.t.t.t.t.t.t.t.t.t.t.t.t.t.t.t.t.tQtQtQtQtQtQtQt",
"QtQtQtQtQtQtQtQtQtQtQtQtQtQtQtQtQtQtQtQtQtQtQtQtQtQtQtQtQtQtQtQtQtQtQtQtQtQtQtQtQtQtQtQtQtQtQtQt",
"QtQtQtQtQtQtQtQtQtQtQtQtQtQtQtQtQtQtQtQtQtQtQtQtQtQtQtQtQtQtQtQtQtQtQtQtQtQtQtQtQtQtQtQtQtQtQtQt",
"QtQtQtQtQtQtQtQtQtQtQtQtQtQtQtQtQtQtQtQtQtQtQtQtQtQtQtQtQtQtQtQtQtQtQtQtQtQtQtQtQtQtQtQtQtQtQtQt",
"QtQtQtQtQtQtQtQtQtQtQtQtQtQtQtQtQtQtQtQtQtQtQtQtQtQtQtQtQtQtQtQtQtQtQtQtQtQtQtQtQtQtQtQtQtQtQtQt",
"QtQtQtQtQtQtQtQtQtQtQtQtQtQtQtQtQtQtQtQtQtQtQtQtQtQtQtQtQtQtQtQtQtQtQtQtQtQtQtQtQtQtQtQtQtQtQtQt"};
