/* XPM */
static const char *smartcard_24x24_xpm[]={
"24 24 15 1",
". c None",
"c c #000000",
"a c #0f0b06",
"# c #000000",
"m c #0d0c1e",
"e c #0e0c20",
"j c #0e0d1e",
"i c #0e0d1f",
"d c #0e0d20",
"g c #0e0e1f",
"h c #0f0e1f",
"k c #100e20",
"f c #100f21",
"l c #111021",
"b c #ffff00",
"........................",
"........................",
"...##################...",
"..abbbbbbbbbbbbbbbbbbc..",
".#bbbb#########bbbbbbb#.",
".#bbbb#bbbbbbb#bbbbbbbd.",
".#bbb##bb##bbb#bbbbbbbe.",
".#####bb#b############f.",
".#bbbbb#bbbbbbb#bbbbbbg.",
".#bbbbb#bbbbbbb#bbbbbbh.",
".#bbbbb#bbbbbbb#bbbbbbi.",
".#######bbbbbbb#######d.",
".#bbbbb#bbbbbbb#bbbbbbj.",
".#bbbbb#bbbbbbb#bbbbbbh.",
".#bbbbb#bbbbbbb#bbbbbbk.",
".#######bbb#####b#####k.",
".#bbbbbbbbb#bbbb#bbbbbf.",
".#bbbbbbbbb#bb##bbbbbbl.",
".#bbbbbbbb#####bbbbbbbm.",
".#bbbbbbbb#bbbbbbbbbbb#.",
"..cbbbbbb#bbbbbbbbbbbc..",
"...##################...",
"........................",
"........................"};
