/* XPM */
static const char *smartcard_34x34_xpm[]={
"34 34 161 2",
"Qt c None",
".a c #000000",
".# c #020202",
".n c #d2b236",
".O c #d6ba4a",
"#3 c #e2dac2",
"#. c #e6d272",
".b c #eaca3e",
"#4 c #eae2da",
"ax c #eeca36",
".k c #eece3a",
"an c #eed25e",
"#f c #eed676",
".e c #f2ce3a",
"at c #f2ce42",
".H c #f2d23e",
".V c #f2d666",
"ad c #f2d67a",
"ac c #f2da86",
"#j c #f2de86",
"#6 c #f2dea6",
"#C c #f2e2ae",
"#N c #f2e6ca",
"aB c #f6ce32",
"ay c #f6ce42",
".j c #f6d22a",
".G c #f6d23e",
"as c #f6d242",
".u c #f6d636",
"au c #f6d642",
"am c #f6da6a",
".U c #f6da76",
"ak c #f6de6e",
"ah c #f6de72",
"ai c #f6de7a",
".8 c #f6de7e",
"a# c #f6de86",
".W c #f6e276",
"#l c #f6e28a",
"#a c #f6e69a",
"#t c #f6e6ae",
"#H c #f6eaaa",
"#8 c #f6eab2",
"#7 c #f6eabe",
"#Q c #f6eace",
"#1 c #f6eede",
"#0 c #f6f2e6",
".i c #fad22e",
"aC c #fad236",
".d c #fad626",
".c c #fad62a",
".h c #fad62e",
".g c #fad632",
".f c #fad636",
"av c #fad63a",
"aq c #fad63e",
".m c #fada2a",
"aD c #fada32",
"az c #fada3a",
".l c #fada3e",
".s c #fada42",
".r c #fada46",
".y c #fada4a",
".p c #fada4e",
"ao c #fada52",
".F c #fade46",
".o c #fade4e",
".E c #fade52",
".w c #fade5a",
".C c #fade5e",
".L c #fade62",
".Z c #fade6a",
".0 c #fae266",
".I c #fae26a",
".R c #fae276",
".X c #fae27e",
"ag c #fae282",
"#n c #fae286",
"ab c #fae28a",
"aa c #fae28e",
".9 c #fae67e",
"ae c #fae682",
".T c #fae686",
"#m c #fae68a",
".3 c #fae68e",
".4 c #faea96",
".2 c #faea9a",
"#p c #faeaae",
"#g c #faeeaa",
"#E c #faeeba",
"#D c #faf2be",
"#x c #faf2ca",
"#5 c #faf2d2",
"#J c #faf2da",
"#Z c #faf6ea",
"#Y c #fafaee",
".t c #fed632",
"aE c #feda32",
"aA c #feda3a",
".A c #feda3e",
"ar c #feda42",
".z c #feda46",
".q c #feda4a",
"aw c #fede46",
"ap c #fede4a",
".N c #fede4e",
".x c #fede52",
".v c #fede56",
".B c #fede5a",
".1 c #fede5e",
".D c #fee25a",
".M c #fee25e",
".K c #fee262",
".J c #fee266",
".S c #fee26a",
"aj c #fee26e",
".Y c #fee272",
".P c #fee276",
"al c #fee66e",
".Q c #fee672",
"af c #fee682",
".7 c #fee686",
".6 c #feea86",
".5 c #feea8e",
"#e c #feea92",
"#d c #feea96",
"#c c #feea9a",
"#b c #feea9e",
"#k c #feee9a",
"#9 c #feee9e",
"## c #feeea2",
"#i c #feeea6",
"#h c #feeeaa",
"#v c #feeeb2",
"#u c #feeeba",
"a. c #fef2a2",
"#G c #fef2b2",
"#F c #fef2b6",
"#s c #fef2ba",
"#r c #fef2be",
"#q c #fef2c2",
"#o c #fef2c6",
"#A c #fef2ca",
"#P c #fef6c2",
"#O c #fef6c6",
"#B c #fef6ca",
"#z c #fef6ce",
"#y c #fef6d2",
"#w c #fef6d6",
"#K c #fef6da",
"#I c #fef6de",
"#M c #fefada",
"#L c #fefade",
"#W c #fefae2",
"#T c #fefae6",
"#V c #fefaea",
"#S c #fefaee",
"#X c #fefaf2",
"#U c #fefeee",
"#R c #fefef2",
"#2 c #fefefa",
"QtQtQt.#.#.#.#.aQtQtQtQtQtQtQtQtQtQtQtQtQtQtQtQtQtQtQtQtQtQtQtQtQtQt",
"Qt.#.#.b.c.d.d.c.a.a.#.#.#.#QtQtQtQtQtQtQtQtQtQtQtQtQtQtQtQtQtQtQtQt",
"Qt.#.e.f.g.g.g.h.c.d.i.j.k.#.#.#.#.#QtQtQtQtQtQtQtQtQtQtQtQtQtQtQtQt",
"Qt.a.l.l.a.#.#.a.a.a.a.a.j.d.i.m.n.#.#.#.#.a.aQtQtQtQtQtQtQtQtQtQtQt",
"Qt.a.o.p.a.q.r.s.s.s.l.l.a.#.#.f.a.t.u.h.i.d.i.a.#.#.#QtQtQtQtQtQtQt",
"Qt.a.v.w.a.x.x.x.q.q.y.z.z.s.#.#.A.a.#.#.#.#.#.#.c.c.#QtQtQtQtQtQtQt",
"Qt.a.B.C.a.w.w.D.v.E.E.o.x.y.y.#.F.r.#.s.l.G.H.#.#.a.a.#.#QtQtQtQtQt",
"Qt.a.I.I.a.a.a.J.K.J.K.K.L.K.M.w.#.w.#.x.x.E.N.N.y.y.y.#.O.#QtQtQtQt",
"Qt.a.P.P.#.Q.a.a.a.R.I.S.S.J.J.S.#.C.#.M.M.B.w.x.x.x.x.#.o.#QtQtQtQt",
"Qt.#.T.U.#.V.U.W.a.a.X.Q.P.I.Y.Q.#.Z.#.0.1.K.L.C.0.D.M.#.#.#QtQtQtQt",
"QtQt.#.2.3.#.4.4.5.a.#.#.#.T.6.7.8.#.#.X.9.P.P.P.R.Y.Y.#.##..aQtQtQt",
"QtQt.####a.##b#c.2.2.4#d.3.##e.5.#.#.#.#.6.#.#.#.#.#.#.#.##f.aQtQtQt",
"QtQt.#.##g.##g#h#i#i#i#i#b.#.##b.##f#j.##k.##l.3#m#n#n.8.#.U.aQtQtQt",
"QtQtQt.##o#p.##q#q#q#r#r#s#s#t.#.##u#v.#.#.##g#h#h#h#i##.#.#.aQtQtQt",
"QtQtQt.##w#x.##y#z#z#A#A#A#x#B#C.##q#r#r#D.##E#s#F#F#G#v#H.#.#QtQtQt",
"QtQtQt.##I#J.##I#I#K#L#L#M#w#w#N.a#y#y#z#A.#.##B#O#o#P#q#E.#.#QtQtQt",
"QtQtQt.##Q#Q.a.#.#.#.#.#.#.#.#.#.a#R#R#S#S#T.#.##U#V#T#W#W.#.#.#QtQt",
"QtQtQtQt.a#X.a.a#S#Y#Z#Z#Z#Z#0#1.a#X#X#2#2#X#3.#.#.#.#.#.#.##4.#QtQt",
"QtQtQtQt.a#w#w.##M#y#w#w#M#M#w#w.##5#K#L#M#I#5.##L#I#L#W#W#I#W.#QtQt",
"QtQtQtQt.##O#o.##O#O#o#o#o#B#B#o.##6#o#A#z#A#7.##B#z#z#z#y#x#x.#QtQt",
"QtQtQtQt.#.##s.##s#u#s#s#s#s#u#r.#.##6#s#s#8.#.##r#r#r#r#P#P#s.#.#Qt",
"QtQtQtQtQt.###.#.####b#9#b###9#c.##b.#.##c.#.2.2.#.##9#b.#.#.aa..#Qt",
"QtQtQtQtQt.#.3#l.#a#aaab#m.#.#.##e.5.5.##l.##e.3#j.#.#.#.#acacac.#Qt",
"QtQtQtQtQt.#a#ad.#.#.#.#.#.#.8.X.6.7.T.#.#.#ae.6afag.W.W.X.Xahai.#Qt",
"QtQtQtQtQt.#.#.Yah.#.Y.Yaj.Y.Y.I.Qajaj.Q.#ahakal.Iaj.Salaj.J.L.#ak.a",
"QtQtQtQtQtQt.#.Iam.#.S.S.S.S.S.S.I.J.0.0an.#.#.K.K.K.1.0.M.1.C.#.C.a",
"QtQtQtQtQtQt.#.K.L.a.K.K.K.M.M.0.M.C.1.B.#.w.#.w.w.w.D.v.w.v.v.#.x.a",
"QtQtQtQtQtQt.#ao.xao.#.N.N.o.N.E.yapap.#.#.z.r.#.#.#.#.#.#.#.a.s.#Qt",
"QtQtQtQtQtQtQt.#.o.o.b.#.#.#.#.#.#.#.#.#aqar.l.lasatauavavav.f.f.#Qt",
"QtQtQtQtQtQtQt.#.#.sawat.#.#axatay.G.kavazaz.taA.faBaCaDaE.a.#.#.#Qt",
"QtQtQtQtQtQtQtQtQt.#.#aB.j.h.gaDazaz.#.#.#.#.#.#.#.#.a.a.aQtQtQtQtQt",
"QtQtQtQtQtQtQtQtQtQt.#.#.#.#.#.#.#.#QtQtQtQtQtQtQtQtQtQtQtQtQtQtQtQt",
"QtQtQtQtQtQtQtQtQtQtQtQtQtQtQtQtQtQtQtQtQtQtQtQtQtQtQtQtQtQtQtQtQtQt",
"QtQtQtQtQtQtQtQtQtQtQtQtQtQtQtQtQtQtQtQtQtQtQtQtQtQtQtQtQtQtQtQtQtQt"};
