/* XPM */
static const char * smartcard_48x48_xpm[] = {
"46 46 642 2",
"  	c None",
". 	c #000000",
"+ 	c #C3AF4F",
"@ 	c #EAD047",
"# 	c #B39D4D",
"$ 	c #EACA3E",
"% 	c #FAD52C",
"& 	c #FBD62B",
"* 	c #FBD629",
"= 	c #FCD628",
"- 	c #FCD92A",
"; 	c #FBD82B",
"> 	c #D8BA37",
", 	c #BDA342",
"' 	c #AB9347",
") 	c #F5D138",
"! 	c #FBD835",
"~ 	c #FBD833",
"{ 	c #FBD733",
"] 	c #FBD731",
"^ 	c #FAD631",
"/ 	c #FBD62F",
"( 	c #FCD72D",
"_ 	c #FBD62C",
": 	c #FCD62A",
"< 	c #FBD628",
"[ 	c #FAD525",
"} 	c #F8D527",
"| 	c #EBD236",
"1 	c #E1C436",
"2 	c #F3D54B",
"3 	c #FCDA3F",
"4 	c #FBD93D",
"5 	c #F6D23E",
"6 	c #F6D23A",
"7 	c #F8D337",
"8 	c #F9D534",
"9 	c #FBD631",
"0 	c #FBD72E",
"a 	c #FAD531",
"b 	c #F4CD30",
"c 	c #FAD526",
"d 	c #FCDA29",
"e 	c #F9D829",
"f 	c #D1B336",
"g 	c #F9DA4A",
"h 	c #FCDB46",
"i 	c #F9D845",
"j 	c #FCDA41",
"k 	c #FCDA40",
"l 	c #F8D334",
"m 	c #F9D531",
"n 	c #FCD830",
"o 	c #FCD72E",
"p 	c #FCD62D",
"q 	c #FBD62A",
"r 	c #FCD729",
"s 	c #FBD726",
"t 	c #F5D12B",
"u 	c #E4C933",
"v 	c #FBDD4F",
"w 	c #FCDD4E",
"x 	c #FBDB4E",
"y 	c #FCDC4A",
"z 	c #FCDC49",
"A 	c #FCDC48",
"B 	c #FCDC47",
"C 	c #FCDB45",
"D 	c #FCDB44",
"E 	c #FCDB43",
"F 	c #FCDB42",
"G 	c #FBDA40",
"H 	c #FBD93F",
"I 	c #FAD73E",
"J 	c #FAD638",
"K 	c #FCD836",
"L 	c #FCD835",
"M 	c #FCD833",
"N 	c #FBD732",
"O 	c #F9D533",
"P 	c #F9D436",
"Q 	c #FBD533",
"R 	c #FCD72C",
"S 	c #FCD629",
"T 	c #FAD424",
"U 	c #FCD929",
"V 	c #FADA2F",
"W 	c #FCE05A",
"X 	c #FDDF56",
"Y 	c #FCDE57",
"Z 	c #FBDD52",
"` 	c #FDDD51",
" .	c #FCDD50",
"..	c #FCDD4F",
"+.	c #FDDC4D",
"@.	c #FCDC4B",
"#.	c #FCDB48",
"$.	c #FCDB47",
"%.	c #FAD840",
"&.	c #FCDA3E",
"*.	c #FCDA3C",
"=.	c #F6D23D",
"-.	c #FBD72D",
";.	c #F0D362",
">.	c #FDE05E",
",.	c #FCE05E",
"'.	c #FADE5A",
").	c #FDDF5A",
"!.	c #FDDF59",
"~.	c #FCDF57",
"{.	c #FCDF56",
"].	c #FDDE55",
"^.	c #FDDE54",
"/.	c #FDDE53",
"(.	c #FDDD52",
"_.	c #FCDD51",
":.	c #FCDC4C",
"<.	c #FDDC4B",
"[.	c #FBDC47",
"}.	c #FBD942",
"|.	c #FAD83E",
"1.	c #F8D53E",
"2.	c #F5D23C",
"3.	c #F7D435",
"4.	c #FDE267",
"5.	c #FCE166",
"6.	c #FADE63",
"7.	c #FDE163",
"8.	c #FDE062",
"9.	c #FDE060",
"0.	c #FDE05F",
"a.	c #FDE05D",
"b.	c #FDDF5C",
"c.	c #FDDF5B",
"d.	c #FDDF58",
"e.	c #FDDE56",
"f.	c #FCDD53",
"g.	c #FCDC43",
"h.	c #FCDB41",
"i.	c #E9C93F",
"j.	c #FDE471",
"k.	c #FDE36F",
"l.	c #F2D665",
"m.	c #FDE36C",
"n.	c #FDE26B",
"o.	c #FDE26A",
"p.	c #FDE268",
"q.	c #FDE167",
"r.	c #FDE165",
"s.	c #FDE164",
"t.	c #FDE162",
"u.	c #FDDF5D",
"v.	c #F5D757",
"w.	c #FCDF58",
"x.	c #FCDE54",
"y.	c #FCDD52",
"z.	c #FDDD4D",
"A.	c #FDDC4C",
"B.	c #FDDC48",
"C.	c #D7BB4A",
"D.	c #FCE47A",
"E.	c #FDE479",
"F.	c #FDE676",
"G.	c #FDE474",
"H.	c #FDE472",
"I.	c #FDE372",
"J.	c #FDE370",
"K.	c #FDE36E",
"L.	c #FDE36D",
"M.	c #FDE26C",
"N.	c #FDE269",
"O.	c #FDE266",
"P.	c #FDE166",
"Q.	c #FBE065",
"R.	c #FBDF61",
"S.	c #F9DD5F",
"T.	c #FDE05C",
"U.	c #FDDE57",
"V.	c #FDDF55",
"W.	c #FCDE53",
"X.	c #FDDE51",
"Y.	c #FBDC4F",
"Z.	c #FBDE4D",
"`.	c #F9E382",
" +	c #F7DB75",
".+	c #F5DB74",
"++	c #F1D871",
"@+	c #F6DD75",
"#+	c #F7E076",
"$+	c #F9E077",
"%+	c #FBE277",
"&+	c #FBE376",
"*+	c #FCE376",
"=+	c #FCE476",
"-+	c #FDE475",
";+	c #FDE473",
">+	c #FDE371",
",+	c #F9DE69",
"'+	c #FBE16B",
")+	c #FDE161",
"!+	c #FDE160",
"~+	c #FBE78B",
"{+	c #FBE78A",
"]+	c #F6DC76",
"^+	c #F7DF78",
"/+	c #FBE47C",
"(+	c #FDE67C",
"_+	c #FDE57A",
":+	c #FDE579",
"<+	c #FDE578",
"[+	c #F7DE73",
"}+	c #FCE371",
"|+	c #F7DB63",
"1+	c #FCEB97",
"2+	c #FDEB96",
"3+	c #FAE58E",
"4+	c #FDEA93",
"5+	c #FDE992",
"6+	c #FDEA91",
"7+	c #FCEA8F",
"8+	c #FDE98E",
"9+	c #FDE88D",
"0+	c #FCE786",
"a+	c #FDE786",
"b+	c #FDE785",
"c+	c #FDE783",
"d+	c #F5DE7D",
"e+	c #FCE67F",
"f+	c #FDE57B",
"g+	c #FCE475",
"h+	c #E7D171",
"i+	c #FDEEA4",
"j+	c #FDEDA2",
"k+	c #FAE89B",
"l+	c #FDEC9F",
"m+	c #FDEC9D",
"n+	c #FDEC9C",
"o+	c #FDEC9B",
"p+	c #FDEB9A",
"q+	c #FDEB99",
"r+	c #FDEB98",
"s+	c #FBE994",
"t+	c #FDEA92",
"u+	c #FDE990",
"v+	c #FDE98F",
"w+	c #FDE887",
"x+	c #FDE886",
"y+	c #EDD777",
"z+	c #FEEFAE",
"A+	c #FCEEAC",
"B+	c #FBEDA9",
"C+	c #FEEFAA",
"D+	c #FEEEA9",
"E+	c #FEEEA8",
"F+	c #FDEEA7",
"G+	c #FDEEA6",
"H+	c #FEEEA4",
"I+	c #FDEDA3",
"J+	c #FEEDA2",
"K+	c #FDEDA1",
"L+	c #F1D984",
"M+	c #FCEA97",
"N+	c #F1E08D",
"O+	c #FDEB95",
"P+	c #FDE993",
"Q+	c #F8E48B",
"R+	c #FCE98F",
"S+	c #FDE98D",
"T+	c #FCE78B",
"U+	c #FBE588",
"V+	c #FAE486",
"W+	c #FAE385",
"X+	c #F6DF7E",
"Y+	c #F6DD78",
"Z+	c #FEF2BB",
"`+	c #FEF2BA",
" @	c #FEF1B7",
".@	c #FEF1B6",
"+@	c #FEF1B5",
"@@	c #FEF0B4",
"#@	c #FEF0B3",
"$@	c #FEF0B1",
"%@	c #FEF0B0",
"&@	c #FEEFB0",
"*@	c #F3DE97",
"=@	c #F9E8A0",
"-@	c #FCECA4",
";@	c #F5E49A",
">@	c #FCEDA1",
",@	c #FBEB9D",
"'@	c #FDEC9A",
")@	c #FDEC99",
"!@	c #FDEB97",
"~@	c #FDEA95",
"{@	c #FEF4C9",
"]@	c #FEF4C8",
"^@	c #FAECB8",
"/@	c #FEF3C5",
"(@	c #FEF3C4",
"_@	c #FEF3C2",
":@	c #FEF3C1",
"<@	c #FEF2C0",
"[@	c #FEF2BF",
"}@	c #FEF2BD",
"|@	c #FEF2BC",
"1@	c #F5E9B1",
"2@	c #FEF0B5",
"3@	c #FEEEAB",
"4@	c #FEEEAA",
"5@	c #FDEEA5",
"6@	c #FDF6D5",
"7@	c #FEF6D5",
"8@	c #FBF0C8",
"9@	c #FEF6D4",
"0@	c #FEF5D1",
"a@	c #FEF5D0",
"b@	c #FEF5CF",
"c@	c #FEF5CE",
"d@	c #FEF4CD",
"e@	c #FEF5CC",
"f@	c #FEF4CC",
"g@	c #FEF5CA",
"h@	c #F0E1AC",
"i@	c #FEF3C3",
"j@	c #FEF2C3",
"k@	c #FDF2BF",
"l@	c #F9EEB8",
"m@	c #FEF1B9",
"n@	c #FEF1B8",
"o@	c #F7E9A8",
"p@	c #F7EAAA",
"q@	c #FDFAE2",
"r@	c #FEF9E3",
"s@	c #FCF5DB",
"t@	c #FEF8DF",
"u@	c #FEF8DE",
"v@	c #FEF8DD",
"w@	c #FEF8DC",
"x@	c #FEF8DB",
"y@	c #FEF8DA",
"z@	c #FEF7DA",
"A@	c #FEF7D8",
"B@	c #FEF7D7",
"C@	c #F3E9BF",
"D@	c #FEF6D3",
"E@	c #FEF6D1",
"F@	c #FEF6D0",
"G@	c #FEF4C7",
"H@	c #FEF4C6",
"I@	c #FEF4C5",
"J@	c #FBF0BE",
"K@	c #FEF6C3",
"L@	c #F1EEDD",
"M@	c #FDF8EA",
"N@	c #FCF8E7",
"O@	c #F1E2C4",
"P@	c #FDFAEC",
"Q@	c #FEFBEC",
"R@	c #FEFAEB",
"S@	c #FEFAEA",
"T@	c #FEFAE9",
"U@	c #FEFAE8",
"V@	c #FEFAE7",
"W@	c #F8F2D9",
"X@	c #FEF9E2",
"Y@	c #FEF9E1",
"Z@	c #FEF8E0",
"`@	c #F8F1D3",
" #	c #FEF7DB",
".#	c #FEF7D6",
"+#	c #FEF7D4",
"@#	c #FEF7D3",
"##	c #FDF5D1",
"$#	c #F3EBD7",
"%#	c #F6EACF",
"&#	c #F1E5CA",
"*#	c #FDFCF4",
"=#	c #FFFCF2",
"-#	c #FEFCF0",
";#	c #FEFCEF",
">#	c #FEFBEF",
",#	c #FEFBED",
"'#	c #FDFBEC",
")#	c #FEFBEA",
"!#	c #FEFBE9",
"~#	c #FEFAE6",
"{#	c #FDFAE5",
"]#	c #FEFAE5",
"^#	c #FDF7DD",
"/#	c #FEFBF1",
"(#	c #F6EFDC",
"_#	c #FDFAF0",
":#	c #FDFBF0",
"<#	c #FDFAEF",
"[#	c #FCF9EE",
"}#	c #FBF8ED",
"|#	c #FBF7EC",
"1#	c #FAF6EA",
"2#	c #F9F6E9",
"3#	c #F8F4E7",
"4#	c #F6F0E1",
"5#	c #FBF9F2",
"6#	c #FEFDF9",
"7#	c #FFFDFA",
"8#	c #FFFDF9",
"9#	c #FFFDFB",
"0#	c #E4DDCD",
"a#	c #EAE3DB",
"b#	c #FBF5D9",
"c#	c #FFF9E2",
"d#	c #FDF7DF",
"e#	c #FEF9E4",
"f#	c #FEF9E5",
"g#	c #FEF9E6",
"h#	c #FEF9E7",
"i#	c #FEFAEC",
"j#	c #FEFAED",
"k#	c #F0E8D2",
"l#	c #FDFAED",
"m#	c #FEFBEE",
"n#	c #FEFAEE",
"o#	c #FDF9ED",
"p#	c #FDF9EE",
"q#	c #FCF9EC",
"r#	c #F8F3E4",
"s#	c #F6F2E6",
"t#	c #E0DBC1",
"u#	c #FEF7D5",
"v#	c #FEF8D8",
"w#	c #F4EAC9",
"x#	c #FDF5D7",
"y#	c #F9F0D1",
"z#	c #FEF9DE",
"A#	c #FEF9DF",
"B#	c #FEF9E0",
"C#	c #FCF8E0",
"D#	c #FEFAE4",
"E#	c #FEF3C6",
"F#	c #FAECB9",
"G#	c #FEF4CA",
"H#	c #FAF0C5",
"I#	c #F2E0AC",
"J#	c #F6E9BA",
"K#	c #FDF3C9",
"L#	c #FEF4CB",
"M#	c #F7EABE",
"N#	c #FEF5CD",
"O#	c #FDF5D0",
"P#	c #F9EBAF",
"Q#	c #FDF1BA",
"R#	c #FEF1BA",
"S#	c #FEF2B9",
"T#	c #F1DFA4",
"U#	c #FDF1B9",
"V#	c #FDF2BC",
"W#	c #F6E7AF",
"X#	c #FBEFB9",
"Y#	c #FEF2BE",
"Z#	c #FEF3BE",
"`#	c #FEF3BF",
" $	c #FCEFB9",
".$	c #FCECA8",
"+$	c #FCEEAB",
"@$	c #FEEEAC",
"#$	c #FDEFAC",
"$$	c #FDEEAC",
"%$	c #FAEBA7",
"&$	c #F4E19C",
"*$	c #FDEFAD",
"=$	c #FBECAB",
"-$	c #FEEFAD",
";$	c #F9E9A3",
">$	c #F2E5A3",
",$	c #FDEC9E",
"'$	c #FEEC9F",
")$	c #FBEA9B",
"!$	c #FDED9F",
"~$	c #FCEA9C",
"{$	c #F7E698",
"]$	c #FCEB9D",
"^$	c #F1DE91",
"/$	c #FEEC9E",
"($	c #F4E18F",
"_$	c #FEF0A1",
":$	c #FCE891",
"<$	c #FCE78F",
"[$	c #F8E189",
"}$	c #F7E18A",
"|$	c #F8E28A",
"1$	c #F9E28C",
"2$	c #F9E28B",
"3$	c #F9E38B",
"4$	c #FAE38D",
"5$	c #FCE990",
"6$	c #FDE991",
"7$	c #F7E28B",
"8$	c #F2DD86",
"9$	c #F4DD85",
"0$	c #F5DD84",
"a$	c #F3DC82",
"b$	c #F4DD83",
"c$	c #F6DF84",
"d$	c #F6DB7B",
"e$	c #F3D779",
"f$	c #F6DE7F",
"g$	c #FAE281",
"h$	c #FCE683",
"i$	c #FDE784",
"j$	c #FBE581",
"k$	c #F9E27E",
"l$	c #F9E380",
"m$	c #F9E280",
"n$	c #FAE27F",
"o$	c #FAE37F",
"p$	c #F3DB77",
"q$	c #F6DE79",
"r$	c #F9E683",
"s$	c #FDE77F",
"t$	c #FCE67E",
"u$	c #FDE77E",
"v$	c #FDE77D",
"w$	c #FDE67D",
"x$	c #FDE67B",
"y$	c #FDE67A",
"z$	c #F9E177",
"A$	c #FCE579",
"B$	c #F7DD75",
"C$	c #FAE177",
"D$	c #FDE678",
"E$	c #FDE577",
"F$	c #FDE576",
"G$	c #F6DD6E",
"H$	c #F5DE72",
"I$	c #FDE470",
"J$	c #FCE36F",
"K$	c #F9DE6C",
"L$	c #F7DC6C",
"M$	c #FDE46E",
"N$	c #FDE36B",
"O$	c #FDE36A",
"P$	c #F9DF68",
"Q$	c #F6DF6C",
"R$	c #FCE26C",
"S$	c #F4DB68",
"T$	c #FDE368",
"U$	c #FCE265",
"V$	c #EED25F",
"W$	c #FDE264",
"X$	c #FCE060",
"Y$	c #FCE05F",
"Z$	c #F4D764",
"`$	c #FBE064",
" %	c #F5D961",
".%	c #FDE061",
"+%	c #FDE15F",
"@%	c #FCDF5C",
"#%	c #FBDE59",
"$%	c #FDE05A",
"%%	c #FDDF57",
"&%	c #FCDE55",
"*%	c #ECCE5B",
"=%	c #FBDE5A",
"-%	c #FCDF5A",
";%	c #F7DA5D",
">%	c #FDDD54",
",%	c #F5D551",
"'%	c #FCDE52",
")%	c #FBDB50",
"!%	c #FDDD4F",
"~%	c #FDDE4F",
"{%	c #FDDE4E",
"]%	c #FCDD4D",
"^%	c #FDDD4A",
"/%	c #F8DA52",
"(%	c #FDDE52",
"_%	c #F2D14D",
":%	c #FDDD50",
"<%	c #FCDE4F",
"[%	c #FCDD4C",
"}%	c #FDDD4C",
"|%	c #FCDD4B",
"1%	c #F9D84A",
"2%	c #FCDD49",
"3%	c #F6D443",
"4%	c #FBDA42",
"5%	c #FBDB4B",
"6%	c #FDDC4A",
"7%	c #F9D949",
"8%	c #EECD42",
"9%	c #FBDA47",
"0%	c #F7D544",
"a%	c #F5D441",
"b%	c #F4CE46",
"c%	c #FAD73D",
"d%	c #FAD83C",
"e%	c #FCD93B",
"f%	c #FCD93A",
"g%	c #FCDA39",
"h%	c #FCD937",
"i%	c #FAD838",
"j%	c #FAD941",
"k%	c #F3D142",
"l%	c #F3CC43",
"m%	c #F4CE41",
"n%	c #F4CF40",
"o%	c #F6D140",
"p%	c #F7D33F",
"q%	c #F4D13E",
"r%	c #F1D03F",
"s%	c #FAD63B",
"t%	c #FCD939",
"u%	c #FCD938",
"v%	c #FCD936",
"w%	c #FBD735",
"x%	c #F3CF3A",
"y%	c #F8D533",
"z%	c #FCD832",
"A%	c #FCD932",
"B%	c #FCD731",
"C%	c #FDDB30",
"D%	c #F5D33A",
"E%	c #FBD938",
"F%	c #FBD838",
"G%	c #FBD937",
"H%	c #FCD935",
"I%	c #FCD834",
"J%	c #FCD934",
"K%	c #FAD632",
"L%	c #ECCD38",
"M%	c #FCDA32",
"N%	c #FCD931",
"O%	c #ECCB37",
"P%	c #DBBE40",
"Q%	c #F4CE31",
"R%	c #F8D32E",
"S%	c #F8D42D",
"T%	c #FBD62E",
"U%	c #FAD52F",
"V%	c #FCDB33",
"W%	c #FBDE35",
"X%	c #F8DC37",
"Y%	c #FADA39",
"        . . . . .                                                                           ",
"      . . + @ # . . . . . . .                                                               ",
"    . . $ % & * = - ; > , ' . . . . .                                                       ",
"  . . ) ! ~ { ] ^ / ( _ : < [ } | 1 . . . . . .                                             ",
"  . 2 3 4 5 . . . . 6 6 7 8 9 0 a b < c d e f . . . . . .                                   ",
"  . g h i . . j k . . . . . . . . . l m n o p q r s t u . . . . . .                         ",
"  . v w x . y z A B C D E F G H I . . . J K L M N O P Q R S T U V . . .                     ",
"  . W X Y . Z `  ...w +.@.y #.$.h C E . . %.&.*.=.. . . . . . . / -.& . .                   ",
"  . ;.>.,.. '.).!.~.{.].^./.(._...w :.<.. . [.h . . }.G |.1.2.. . . . 3.. . .               ",
"  . . 4.5.. 6.7.8.9.0.>.a.b.c.!.d.e.].^.f.. . ... :.@.z #.$.C g.F h.. . . i.. .             ",
"    . j.k.. l.m.n.o.p.q.q.r.s.7.t.9.0.>.u.v.. w.. . x./.y._...z.A.y z B.. . C..             ",
"    . D.E.. . F.G.H.I.J.k.K.L.M.o.N.p.O.P.Q.. R.S.. >.T.c.).d.U.V.x.W.X.Y.. Z..             ",
"    . `. +.+. ++.+@+#+$+%+&+*+=+-+;+j.>+J.K.. ,+'+. p.q.P.s.7.)+!+>.a.b.c.. . .             ",
"    . . ~+{+. . . . . . . . . ]+^+/+(+_+:+<+. [+G.. }+>+k.K.m.m.o.N.4.O.s.|+. . .           ",
"      . 1+2+3+. 4+5+6+7+8+9+. . . . 0+a+b+c+d+. e+. /+(+f+:+*+*+g+G.;+j.J.. . h+.           ",
"      . i+j+k+. l+m+n+o+p+q+r+2+s+. . t+u+v+. . . . . w+x+. . . . . . . . . . y+.           ",
"      . . z+A+. B+C+D+E+F+G+H+I+J+K+. . m+n+. L+M+N+. O+P+. Q+R+S+T+U+V+W+X+. Y+.           ",
"        . Z+`+. .  @.@+@@@#@$@%@&@z+A+. . *@. =@G+-@. ;@>@. ,@m+n+'@)@!@2+~@. t+.           ",
"        . {@]@^@. /@(@_@:@:@<@[@}@|@Z+1@. . . 2@@@#@. . . . A+3@4@D+E+G+5@H+. . . .         ",
"        . 6@7@8@. 9@0@a@b@c@d@e@f@g@{@{@h@. . i@j@:@<@k@. . l@`+m@n@.@2@@@#@o@. p@.         ",
"        . q@r@s@. . t@u@v@w@x@y@z@A@B@B@C@. 9@D@E@F@b@b@c@. . g@{@G@H@I@(@i@J@. K@.         ",
"        . L@M@N@O@. P@P@P@Q@R@S@T@U@U@V@W@. r@X@Y@Y@Z@t@v@`@.  #y@A@A@B@.#+#@#. ##.         ",
"        . . $#%#&#. . . . . . . . . . . . . *#=#-#;#>#;#,#R@. . '#)#!#U@~#{#]#. ^#. .       ",
"          . ;#/#(#. _#:#<#[#}#|#1#2#1#3#4#. 5#6#6#6#7#7#8#9#0#. . . . . . . . . . a#.       ",
"          . b#c#d#. e#e#e#e#f#g#h#h#U@U@T@. . R@R@i#i#j#j#>#k#. l#m#n#o#p#q#q#r#. s#.       ",
"          . t#D@@#. . +#u#u#u#.#.#B@B@A@v#w#. x#y@y@x@x@x@w@y#. u@z#z#A#B#B#B#C#. D#.       ",
"          . . H@E#F#. G@G@G@G@]@]@]@{@{@G#H#. I#J#K#L#e@e@e@M#. N#N#c@c@b@b@F@O#. O#.       ",
"            . . n@P#. Q#m@m@R#R#S#m@`+R#`+Q#. . . T#U#|@V#W#. . X#}@}@Y#Y#Y#Z#`#.  $. .     ",
"              . 3@.$. +$@$@$@$#$$$@$$$#$@$%$. $$. . &$*$=$. . . . . z+-$z+z+z+z+. ;$>$.     ",
"              . l+,$. . '$'$'$l+,$l+l+,$)$. . !$l+. . ~${$. ]$m+^$. . ,$/$l+. . . ($_$.     ",
"              . :$<$[$. }$|$1$2$3$4$. . . . 5$6$6+t+. 7$5$. u+u+u+8$. . . . . 9$0$a$b$.     ",
"              . c$d$e$. . . . . . . . f$g$0+x+x+a+x+. . . . h$i$i$c+j$k$l$m$n$n$o$p$q$.     ",
"              . r$s$t$. u$v$w$w$w$(+(+(+(+x$y$y$y$y$z$. A$B$C$<+<+<+D$E$E$E$F$F$F$G$. . .   ",
"              . . G.G.H$. ;+;+;+H.H.H.j.j.j.j.j.I$I$J$. . K$L$M$K.L.L.m.m.m.m.N$O$P$. Q$.   ",
"                . R$N$S$. . o.o.N.N.N.N.p.T$4.4.4.O.U$V$. . . W$s.7.7.t.t.)+)+)+!+X$. Y$.   ",
"                . Z$7.`$ %. t.)+.%.%!+!+0.+%>.a.a.a.a.. . @%. #%).$%!.d.d.%%%%e.X &%. x..   ",
"                . *%=%-%;%. . d.d.d.%%X X V.V.V.^.>%/.. ,%'%. . )%!%~%{%{%w ]%]%. . . ^%.   ",
"                . . /%(%Z _%. :% .<%!%w w ]%]%[%}%|%. . 1%2%A . . . . . . . . . . 3%4%. .   ",
"                  . . 5%6%7%8%. . 9%. . . . . . . . . 0%k k 3 3 |.a%b%1.c%d%e%f%g%h%i%.     ",
"                    . . j%F F k%. . . l%m%n%o%p%q%r%s%t%u%u%h%h%v%w%x%y%M z%A%B%C%. . .     ",
"                      . . D%E%u%F%G%h%K H%I%J%M K%L%K%n n M%M%N%O%P%. . . . . . . .         ",
"                        . . . Q%R%S%T%U%V%W%X%Y%. . . . . . . . . . .                       ",
"                            . . . . . . . . . . .                                           ",
"                                                                                            ",
"                                                                                            ",
"                                                                                            "};
