/* XPM */
static const char *smartcard_24x24_xpm[]={
"24 24 14 1",
". c None",
"# c #000000",
"l c #0d0c1e",
"d c #0e0c20",
"i c #0e0d1e",
"h c #0e0d1f",
"c c #0e0d20",
"f c #0e0e1f",
"a c #0f0b06",
"g c #0f0e1f",
"j c #100e20",
"e c #100f21",
"k c #111021",
"b c #fde471",
"........................",
"........................",
"...##################...",
"..abbbbbbbbbbbbbbbbbb#..",
".#bbbb#########bbbbbbb#.",
".#bbbb#bbbbbbb#bbbbbbbc.",
".#bbb##bb##bbb#bbbbbbbd.",
".#####bb#b############e.",
".#bbbbb#bbbbbbb#bbbbbbf.",
".#bbbbb#bbbbbbb#bbbbbbg.",
".#bbbbb#bbbbbbb#bbbbbbh.",
".#######bbbbbbb#######c.",
".#bbbbb#bbbbbbb#bbbbbbi.",
".#bbbbb#bbbbbbb#bbbbbbg.",
".#bbbbb#bbbbbbb#bbbbbbj.",
".#######bbb#####b#####j.",
".#bbbbbbbbb#bbbb#bbbbbe.",
".#bbbbbbbbb#bb##bbbbbbk.",
".#bbbbbbbb#####bbbbbbbl.",
".#bbbbbbbb#bbbbbbbbbbb#.",
"..#bbbbbb#bbbbbbbbbbb#..",
"...##################...",
"........................",
"........................"};
