/* XPM */
static const char *traffic_yellow_22x22_xpm[]={
"22 22 6 1",
". c None",
"a c #000000",
"d c #005000",
"b c #631818",
"# c #a0a0a0",
"c c #ffff00",
".......#########......",
"......aaaaaaaaa##.....",
".....aaaaaaaaaaa#.....",
".....aaaabbbaaaa#.....",
".....aaabbbbbaaa#.....",
".....aaabbbbbaaa#.....",
".....aaabbbbbaaa#.....",
".....aaaabbbaaaa#.....",
".....aaaaaaaaaaa#.....",
".....aaaacccaaaa#.....",
".....aaacccccaaa#.....",
".....aaacccccaaa#.....",
".....aaacccccaaa#.....",
".....aaaacccaaaa#.....",
".....aaaaaaaaaaa#.....",
".....aaaadddaaaa#.....",
".....aaadddddaaa#.....",
".....aaadddddaaa#.....",
".....aaadddddaaa#.....",
".....aaaadddaaaa#.....",
".....aaaaaaaaaaa......",
"......aaaaaaaaa......."};
