/* XPM */
static const char * traffic_red_16x16_xpm[] = {
"16 16 7 1",
" 	c None",
".	c #000000",
"+	c #590000",
"@	c #C00000",
"#	c #F70000",
"$	c #8C0000",
"%	c #FF0000",
"                ",
"..............  ",
"..............  ",
"....+@##@+....  ",
"...$%%%%%%$...  ",
"..+%%%%%%%%+..  ",
"..@%%%%%%%%@..  ",
"..#%%%%%%%%#..  ",
"..#%%%%%%%%#..  ",
"..@%%%%%%%%@..  ",
"..+%%%%%%%%+..  ",
"...$%%%%%%$...  ",
"....+@##@+....  ",
"..............  ",
"..............  ",
"                "};
