/* XPM */
static const char *up_22x22_xpm[]={
"22 22 106 2",
"Qt c None",
".3 c None",
"#e c None",
".5 c None",
".6 c None",
".4 c None",
"#d c None",
"#J c #010308",
"#N c #020207",
".2 c #030810",
".a c #040913",
".M c #040a15",
"#M c #040d17",
".7 c #050405",
".d c #050e1a",
".h c #050f1c",
".n c #05101c",
"#I c #05111e",
"#K c #051320",
"#L c #061221",
"#m c #061625",
"#C c #061727",
"#c c #07182a",
".# c #0c3651",
".X c #0d3d5c",
".I c #0e97bf",
".z c #0ea0c5",
"#H c #0f4364",
"#F c #0f5f84",
".H c #0f9ec2",
".W c #105375",
".V c #105c7f",
"#G c #106187",
".c c #106589",
".U c #107093",
".Q c #107195",
".L c #107ea3",
".0 c #1096bd",
".m c #10a2c7",
"#B c #116182",
"#v c #11658c",
"#j c #118eb0",
"#q c #1191b2",
"#t c #1191b3",
".T c #1192b2",
"## c #1197b9",
"#b c #13678e",
"#l c #136890",
"#z c #1397b8",
".S c #14b5d3",
"#A c #15bdd6",
".K c #15c1da",
".s c #15c2dc",
".g c #17a4c2",
".G c #17a9c8",
".J c #17abd0",
".y c #19b3ce",
".B c #1ca2c3",
".u c #1cb2cd",
"#u c #20c2d5",
".l c #21ccdc",
"#n c #234760",
"#E c #25678a",
".R c #25aecc",
".1 c #26c3d5",
".N c #294b6a",
"#D c #2c5371",
".P c #2d6284",
"#. c #32afcf",
".Z c #34b2cd",
"#f c #35566e",
".t c #3cd7e1",
".Y c #3f9dc0",
"#y c #40a2c3",
"#k c #43d5de",
"#a c #46d6df",
".O c #486789",
".A c #48dfe9",
".F c #59c3da",
"#x c #64b6d1",
".C c #6f9ab8",
".x c #71d1e0",
".b c #7495b3",
".r c #79cfe2",
"#s c #7bc5de",
".i c #7c9ab5",
".v c #809fbb",
".o c #819eba",
"#i c #81c9db",
".e c #83a7c2",
".9 c #96d8e9",
".8 c #98cfe1",
"#p c #99d3e4",
"#r c #a8e1ef",
".E c #a9cdde",
".k c #bcdeeb",
"#h c #c4eaf3",
"#o c #cbedf4",
"#w c #ccebf5",
".q c #dcedf3",
".f c #ddeff8",
".D c #dfeff8",
".w c #e1f0f4",
"#g c #e4f4f9",
".j c #fdfafd",
".p c #fdfcfd",
"QtQtQtQtQtQtQtQtQtQtQtQtQtQtQtQtQtQtQtQtQtQt",
"QtQtQtQtQtQtQtQtQtQtQtQtQtQtQtQtQtQtQtQtQtQt",
"QtQtQtQtQtQtQtQtQtQtQtQtQtQtQtQtQtQtQtQtQtQt",
"QtQtQtQtQtQtQtQtQtQt.#.aQtQtQtQtQtQtQtQtQtQt",
"QtQtQtQtQtQtQtQtQt.#.b.c.dQtQtQtQtQtQtQtQtQt",
"QtQtQtQtQtQtQtQt.#.e.f.g.c.hQtQtQtQtQtQtQtQt",
"QtQtQtQtQtQtQt.#.i.j.k.l.m.c.nQtQtQtQtQtQtQt",
"QtQtQtQtQtQt.#.o.p.q.r.s.t.u.c.hQtQtQtQtQtQt",
"QtQtQtQtQt.#.v.p.w.x.y.z.s.A.B.c.hQtQtQtQtQt",
"QtQtQtQt.#.C.D.E.F.G.H.I.J.K.t.L.c.MQtQtQtQt",
"QtQtQt.#.N.O.P.Q.R.H.I.I.S.T.U.V.W.X.aQtQtQt",
"QtQt.#.X.X.X.X.X.Y.Z.H.0.1.T.X.X.X.X.X.2QtQt",
"QtQt.3.4.4.5.6.7.8.9#.###a#b#c#d.5.5#e.3QtQt",
"QtQtQtQtQtQtQt#f#g#h#i#j#k#l#mQtQtQtQtQtQtQt",
"QtQtQtQtQtQtQt#n.j#o#p#q#a#l#mQtQtQtQtQtQtQt",
"QtQtQtQtQtQtQt.#.j#r#s#t#u#v#mQtQtQtQtQtQtQt",
"QtQtQtQtQtQtQt.##w#x#y#z#A#B#CQtQtQtQtQtQtQt",
"QtQtQtQtQtQtQt.##D#E#F#G#G#H#IQtQtQtQtQtQtQt",
"QtQtQtQtQtQtQt#J.d#K#L#K#K#M#NQtQtQtQtQtQtQt",
"QtQtQtQtQtQtQtQtQtQtQtQtQtQtQtQtQtQtQtQtQtQt",
"QtQtQtQtQtQtQtQtQtQtQtQtQtQtQtQtQtQtQtQtQtQt",
"QtQtQtQtQtQtQtQtQtQtQtQtQtQtQtQtQtQtQtQtQtQt"};
